<svg version="1.1" id="Layer_1" xmlns="http://www.w3.org/2000/svg" xmlns:xlink="http://www.w3.org/1999/xlink" x="0px" y="0px"
	 width="100%" viewBox="0 0 2878 487" enable-background="new 0 0 2878 487" xml:space="preserve">
<path fill="#F56B11" opacity="1.000000" stroke="none" 
	d="
M1.000000,486.000000 
	C1.000000,324.350220 1.000000,162.700424 1.000000,1.025324 
	C960.216309,1.025324 1919.432617,1.025324 2879.000000,1.025324 
	C2879.000000,162.365906 2879.000000,323.732056 2878.531250,485.549011 
	C2012.871948,485.999786 1147.681396,485.999786 281.237427,485.999786 
	C283.606384,484.111725 284.853516,483.073914 286.145081,482.094788 
	C317.740021,458.142395 349.300354,434.143799 381.016479,410.352905 
	C383.444305,408.531738 386.975677,407.297516 389.999512,407.286652 
	C441.330688,407.101990 492.662720,407.157013 543.994568,407.147766 
	C547.160278,407.147186 550.332214,407.163086 553.490723,406.984375 
	C580.058167,405.481171 601.868286,383.543915 601.909973,357.665131 
	C602.044739,274.001099 601.975891,190.336731 601.941528,106.672501 
	C601.937500,96.916191 599.126099,87.906631 593.481873,79.951134 
	C582.909912,65.050125 568.161865,57.166668 550.102112,57.130215 
	C439.272491,56.906502 328.442200,57.020409 217.612122,57.023674 
	C217.112335,57.023689 216.612213,57.041515 216.112808,57.063774 
	C188.309052,58.302883 166.053619,80.278839 166.029236,106.884933 
	C165.952698,190.382462 165.992996,273.880127 166.010605,357.377716 
	C166.012970,368.617279 169.610779,378.676178 176.721466,387.337067 
	C187.151047,400.040405 200.781387,406.605377 217.145020,407.045410 
	C229.260864,407.371246 241.392487,407.109467 254.122589,407.109467 
	C254.122589,433.653595 254.122589,459.676208 254.122589,486.000000 
	C169.961731,486.000000 85.480865,486.000000 1.000000,486.000000 
M2192.000977,212.870026 
	C2192.727783,212.646011 2193.454834,212.421997 2194.885498,212.084854 
	C2200.953613,208.624542 2207.236328,205.486176 2213.031982,201.617462 
	C2219.380859,197.379166 2225.521484,192.746399 2231.295898,187.756912 
	C2235.703613,183.948517 2234.918457,180.593216 2229.488037,178.432907 
	C2225.024170,176.656952 2220.427246,175.030670 2215.741211,174.032776 
	C2200.961182,170.885529 2186.244629,171.611038 2171.791016,175.987442 
	C2140.368408,185.501801 2111.204834,199.223633 2087.304688,222.407700 
	C2079.952881,229.539337 2073.850586,237.641495 2070.491211,247.494873 
	C2065.358154,262.551514 2069.408936,276.367615 2082.499023,285.362701 
	C2088.739746,289.651154 2095.755371,292.999481 2102.774414,295.922058 
	C2111.971924,299.751740 2121.739258,302.238708 2130.860352,306.221405 
	C2141.314453,310.786102 2151.974365,315.399689 2161.369141,321.735474 
	C2172.815674,329.454742 2176.489502,341.486115 2174.553467,355.174622 
	C2171.538574,376.494537 2158.195312,388.211823 2138.511230,393.917572 
	C2123.311523,398.323456 2107.893066,397.728729 2092.441650,395.380676 
	C2083.475342,394.018097 2074.781006,391.835205 2067.308105,386.415497 
	C2061.421631,382.146362 2060.247314,375.404633 2064.008789,369.221344 
	C2064.630615,368.199127 2065.241211,367.170135 2065.856934,366.144257 
	C2051.441406,372.407471 2037.463989,378.904907 2026.959595,390.780212 
	C2026.849609,390.904572 2026.759888,391.046875 2026.661011,391.181030 
	C2021.774170,397.800476 2022.503418,403.523193 2028.998169,408.475128 
	C2030.707275,409.778198 2032.534790,411.247070 2034.538086,411.789307 
	C2045.242676,414.686798 2055.974609,419.437500 2066.780518,419.669739 
	C2114.482422,420.694763 2155.672607,403.525146 2190.061768,370.805878 
	C2197.212646,364.002319 2203.417236,355.021271 2206.979248,345.848297 
	C2218.026123,317.397919 2210.666016,302.066223 2185.994385,290.046204 
	C2177.235840,285.779083 2167.527100,283.502838 2158.386963,279.968872 
	C2146.635986,275.425415 2134.509766,271.479706 2123.482910,265.536591 
	C2110.943359,258.778168 2104.987305,247.236740 2106.218506,232.589554 
	C2107.506836,217.268967 2114.850586,205.783188 2129.256104,200.334274 
	C2149.255615,192.769440 2169.694092,193.086105 2189.857422,200.253235 
	C2196.206543,202.510025 2196.913330,205.528458 2192.885986,211.693390 
	C2192.359619,211.956421 2191.833496,212.219452 2191.432373,213.024719 
	C2191.448975,213.165527 2191.465576,213.306320 2191.482178,213.447128 
	C2191.582275,213.433929 2191.682617,213.420715 2191.782715,213.407486 
	C2191.611816,213.101318 2191.441162,212.795151 2192.000977,212.870026 
M1579.418823,277.130890 
	C1590.946289,276.532013 1594.388062,280.332642 1592.750366,291.866333 
	C1592.656860,292.524323 1592.491089,293.173004 1592.340576,293.821808 
	C1585.612305,322.826965 1578.888794,351.833221 1572.125854,380.830292 
	C1571.875000,381.905518 1571.528076,383.304871 1570.739014,383.856171 
	C1558.540039,392.380127 1546.088257,399.469025 1530.045532,396.219421 
	C1515.822021,393.338318 1507.266602,384.879852 1508.164307,370.510681 
	C1508.895630,358.805511 1511.204346,347.126160 1513.665161,335.617462 
	C1518.254395,314.154846 1523.854614,292.905090 1528.270752,271.409912 
	C1531.043579,257.914124 1524.005615,251.400436 1510.434448,253.558136 
	C1493.205444,256.297424 1479.934204,266.525543 1466.563965,276.714355 
	C1468.614624,276.833801 1470.511719,276.476501 1472.423096,276.230530 
	C1484.750610,274.643890 1490.777832,280.187073 1490.121460,292.545563 
	C1490.006958,294.700653 1489.842529,296.886353 1489.371826,298.984070 
	C1485.439453,316.511597 1481.490601,334.035980 1477.424316,351.532867 
	C1474.330444,364.845123 1471.189453,378.117615 1472.003052,391.963837 
	C1473.064575,410.025635 1482.663696,419.852448 1499.396973,419.565857 
	C1503.208618,419.500610 1507.053833,419.066406 1510.807983,418.384888 
	C1530.151489,414.873383 1547.156982,405.809723 1563.752808,395.815033 
	C1565.361694,394.846008 1566.963501,393.865082 1569.197876,392.507263 
	C1568.722290,396.802856 1568.149658,400.086426 1568.031860,403.386261 
	C1567.648315,414.126007 1572.526001,419.003510 1583.368286,418.885895 
	C1585.026733,418.867889 1586.686035,418.642487 1588.339111,418.460266 
	C1604.234741,416.708038 1614.934204,405.930511 1627.535156,395.979340 
	C1624.361938,395.979340 1622.273560,395.965973 1620.185425,395.981567 
	C1607.884155,396.073425 1603.360718,391.053040 1604.989624,379.074738 
	C1605.190918,377.594757 1605.452148,376.116760 1605.792114,374.662689 
	C1611.697754,349.393890 1617.647827,324.135406 1623.525635,298.860168 
	C1625.936768,288.492828 1628.615967,278.162445 1630.413574,267.684967 
	C1632.221680,257.146545 1626.689575,252.464890 1616.384521,255.218719 
	C1613.197998,256.070282 1609.958740,257.230927 1607.159546,258.933960 
	C1597.503906,264.808380 1588.031860,270.984802 1578.647095,276.758026 
	C1578.732910,276.813263 1578.818726,276.868500 1578.904541,276.923828 
	C1578.830444,276.980835 1578.756226,277.037811 1578.682007,277.094727 
	C1578.624023,277.006744 1578.565918,276.918762 1579.418823,277.130890 
M1091.142456,280.184540 
	C1090.982544,280.018921 1090.822754,279.853333 1090.692017,278.869293 
	C1091.128784,276.412354 1091.690186,273.970093 1091.982056,271.496063 
	C1093.640015,257.440704 1088.573853,252.567429 1074.484619,253.672211 
	C1056.669312,255.069199 1044.689209,266.960907 1030.104370,277.150299 
	C1033.613037,276.764862 1035.711914,276.450317 1037.822144,276.316162 
	C1051.593872,275.440765 1057.013794,281.521729 1054.268066,295.033722 
	C1052.148804,305.463379 1049.836792,315.856659 1047.437134,326.226074 
	C1041.288696,352.795258 1034.848389,379.298676 1028.933472,405.919220 
	C1026.541016,416.687012 1031.982788,421.770569 1042.631836,418.841644 
	C1056.775024,414.951721 1068.217896,406.071350 1079.809204,397.436249 
	C1079.051636,396.975616 1078.461670,396.961639 1077.872437,396.977722 
	C1068.588013,397.230743 1064.857178,392.927856 1066.393677,383.694397 
	C1066.639282,382.217957 1066.998291,380.759094 1067.336792,379.299500 
	C1071.244873,362.451050 1074.685059,345.474762 1079.232422,328.800476 
	C1082.449463,317.003540 1085.986816,305.014191 1091.503418,294.192505 
	C1098.978760,279.528259 1112.539795,274.852295 1128.426392,279.075500 
	C1137.304443,281.435638 1142.980591,287.146637 1144.721924,296.105469 
	C1145.597290,300.609375 1146.092285,305.518402 1145.259521,309.963226 
	C1142.352173,325.481903 1138.798706,340.879791 1135.475830,356.320343 
	C1132.258179,371.271240 1128.382324,386.116669 1125.990234,401.197906 
	C1123.978271,413.882233 1130.849243,419.913147 1143.632202,418.432922 
	C1161.512451,416.362396 1174.774780,405.419128 1188.234619,395.984619 
	C1183.755859,395.984619 1179.115356,396.273529 1174.524658,395.917694 
	C1167.439331,395.368530 1163.160278,390.925934 1163.130371,383.825378 
	C1163.112305,379.546661 1163.728394,375.179626 1164.687988,370.996399 
	C1170.859985,344.087311 1177.213013,317.219757 1183.492432,290.335236 
	C1188.179443,270.267212 1176.910767,255.106445 1156.358276,255.018616 
	C1148.524170,254.985168 1140.453369,256.562073 1132.888062,258.768280 
	C1117.710449,263.194305 1104.630615,271.963928 1091.142456,280.184540 
M1905.130615,394.630005 
	C1902.708984,395.192902 1900.297119,395.803467 1897.863647,396.309204 
	C1891.840454,397.560913 1888.497681,394.945770 1888.570190,388.752869 
	C1888.602905,385.949799 1889.069214,383.107666 1889.690918,380.362976 
	C1892.924805,366.087463 1895.845947,351.721130 1899.704224,337.612885 
	C1903.287354,324.509888 1906.782104,311.180176 1912.353271,298.872559 
	C1920.056763,281.854828 1934.147705,275.489471 1952.556030,278.208984 
	C1964.738281,280.008698 1969.859009,285.504181 1970.234131,297.728363 
	C1970.360962,301.859650 1970.191284,306.119629 1969.323364,310.140808 
	C1965.884766,326.071289 1962.074585,341.921112 1958.481934,357.818878 
	C1955.184204,372.411194 1951.296387,386.916992 1948.960938,401.665588 
	C1946.988403,414.121735 1953.004883,419.682159 1965.720703,418.822144 
	C1984.347900,417.562286 1998.723999,407.772430 2012.438110,395.245422 
	C2006.704346,396.230896 2001.736084,397.653534 1996.727417,397.813019 
	C1989.117798,398.055389 1985.557495,394.415039 1985.673828,386.868103 
	C1985.745117,382.249512 1986.404541,377.563110 1987.425293,373.048553 
	C1993.991455,344.009369 2000.845215,315.035004 2007.354248,285.983246 
	C2009.851685,274.836670 2004.357910,264.080170 1994.181885,258.864563 
	C1985.839233,254.588669 1976.960815,253.665619 1967.932861,255.575928 
	C1949.575317,259.460358 1933.248291,267.961548 1917.840088,278.403015 
	C1916.433960,279.355804 1915.019165,280.295654 1912.631592,281.896362 
	C1924.567505,230.601501 1936.207886,180.576019 1948.188721,129.088013 
	C1924.205200,143.132004 1901.541626,156.403122 1878.878052,169.674225 
	C1882.926880,170.172684 1886.349731,169.428833 1889.809570,169.156326 
	C1898.224854,168.493576 1902.145996,171.868530 1902.111572,180.220184 
	C1902.091797,185.005753 1901.584717,189.895294 1900.505005,194.554443 
	C1885.897705,257.585907 1871.066406,320.565613 1856.554565,383.618896 
	C1854.890625,390.848663 1854.230225,398.438782 1854.157593,405.872131 
	C1854.069580,414.871246 1859.200684,419.281311 1868.185425,418.858185 
	C1876.778564,418.453583 1884.505127,415.098328 1891.068848,409.851776 
	C1896.456909,405.544830 1900.972046,400.145935 1905.505493,394.796722 
	C1905.299194,394.786926 1905.093018,394.777130 1904.886719,394.767334 
	C1905.229980,394.909912 1905.573242,395.052521 1905.130615,394.630005 
M845.246155,387.856018 
	C828.286133,393.290680 810.867554,394.081207 792.610535,393.412903 
	C793.488892,392.362396 793.838074,391.827637 794.296326,391.413574 
	C814.645081,373.025513 832.792603,352.660706 849.204102,330.701447 
	C850.254456,329.296082 852.704956,328.306366 854.549988,328.229858 
	C865.200012,327.788269 875.876099,327.924561 886.519958,327.395203 
	C899.290100,326.760040 911.890564,324.920563 924.394470,319.211761 
	C925.298523,333.077759 925.935547,346.208588 927.064880,359.296967 
	C928.394775,374.708984 929.632629,390.160553 931.886108,405.451202 
	C933.696350,417.734406 940.674011,421.926849 952.694336,418.221344 
	C960.725647,415.745575 968.471191,412.050995 975.946960,408.141388 
	C984.459412,403.689575 992.529480,398.391815 1000.736572,392.826660 
	C1000.586182,392.671783 1000.435730,392.516907 1000.285278,392.362061 
	C1000.476990,392.724304 1000.668640,393.086548 1000.062622,392.946655 
	C996.522461,393.774689 993.003662,394.712097 989.438232,395.411194 
	C976.479797,397.952148 969.787048,393.386047 968.563293,380.294434 
	C965.820190,350.949280 963.269531,321.582825 961.015747,292.196259 
	C958.684937,261.806671 956.819031,231.381531 954.702087,200.975250 
	C954.152039,193.074860 953.424072,185.186844 952.821228,177.823914 
	C916.711853,174.016022 884.015442,180.579575 855.818909,205.362946 
	C875.250854,199.618118 894.526062,199.202530 914.848694,199.617523 
	C910.454041,206.992661 906.853333,213.699738 902.640381,219.997177 
	C876.537231,259.015625 850.517883,298.093384 824.027954,336.848785 
	C804.519348,365.390472 783.005920,392.296631 755.901917,414.215393 
	C755.471985,414.563049 755.235168,415.149628 754.001526,416.942413 
	C768.020325,415.876190 780.888794,415.709381 793.479431,413.753876 
	C813.481079,410.647491 830.238953,400.180023 846.458618,388.086578 
	C846.728149,387.948853 846.997681,387.811127 847.267212,387.673401 
	C847.095459,387.518341 846.923645,387.363281 846.751953,387.208221 
	C846.514832,387.486603 846.277710,387.764984 845.246155,387.856018 
M1787.367798,172.910919 
	C1788.522217,172.864578 1789.702148,172.957016 1790.827393,172.751068 
	C1807.480957,169.702820 1812.863892,175.212921 1809.540161,191.950516 
	C1809.507812,192.113556 1809.445679,192.270493 1809.408691,192.432816 
	C1807.449097,201.029770 1805.515015,209.632675 1803.525757,218.222809 
	C1800.911499,229.512558 1798.254028,240.792282 1795.641968,251.960663 
	C1790.613281,251.692764 1786.128174,251.192993 1781.655884,251.288849 
	C1777.173584,251.384918 1772.639648,251.732941 1768.238892,252.558624 
	C1725.034424,260.664917 1692.160767,284.043610 1668.804688,320.902191 
	C1657.359375,338.964264 1651.912476,358.850677 1654.001343,380.391479 
	C1655.601562,396.892792 1662.946411,409.617004 1679.062012,415.791473 
	C1689.536865,419.804718 1700.402832,420.476440 1711.500977,418.484283 
	C1727.816895,415.555511 1741.484985,406.918579 1755.338501,398.630371 
	C1757.351440,397.426086 1759.331909,396.167297 1761.902588,394.578125 
	C1761.463501,397.180878 1761.156616,398.799652 1760.920898,400.428711 
	C1758.895752,414.424347 1763.670898,419.629059 1777.831665,418.873383 
	C1778.496826,418.837891 1779.165527,418.801697 1779.822998,418.702332 
	C1796.407227,416.196503 1809.106323,406.423615 1822.975830,396.032104 
	C1818.215454,396.032104 1814.770630,396.213501 1811.350952,395.996765 
	C1802.477295,395.434387 1798.051270,390.481201 1798.593628,381.601105 
	C1798.805664,378.130035 1799.371338,374.641846 1800.158569,371.250305 
	C1818.325195,292.977448 1836.547241,214.717453 1854.731445,136.448669 
	C1854.970703,135.418381 1854.858765,134.306442 1854.971436,131.982315 
	C1843.012573,138.733978 1831.774902,144.827698 1820.790771,151.348465 
	C1809.210815,158.223022 1797.872803,165.505234 1786.683960,172.524109 
	C1786.683960,172.524109 1786.630127,172.843414 1786.630127,172.843414 
	C1786.630127,172.843414 1786.522217,172.508423 1787.367798,172.910919 
M2293.813965,266.304565 
	C2277.343262,275.839813 2263.012451,287.870728 2251.479492,303.061340 
	C2234.608398,325.282745 2224.355469,349.892639 2225.078369,378.290588 
	C2225.576660,397.869995 2233.773926,411.411316 2249.458008,416.198578 
	C2257.081299,418.525574 2265.491455,419.431702 2273.480713,419.149994 
	C2287.743408,418.647003 2299.689453,411.242889 2311.370605,403.753021 
	C2315.803955,400.910309 2320.168945,397.960266 2325.311279,394.566498 
	C2324.913818,397.000641 2324.704346,398.457764 2324.435303,399.903900 
	C2321.896729,413.568359 2326.846680,419.320801 2340.812744,418.883972 
	C2342.137939,418.842529 2343.465576,418.667358 2344.777588,418.461029 
	C2355.052734,416.845337 2363.937012,412.005859 2372.413818,406.326324 
	C2376.968506,403.274750 2381.338135,399.946960 2386.669189,396.112366 
	C2383.434082,396.112366 2381.609131,396.078827 2379.785889,396.117676 
	C2364.928711,396.434235 2359.705322,390.794891 2362.906738,376.164124 
	C2369.479492,346.125244 2376.671631,316.222076 2383.599121,286.260803 
	C2385.528809,277.914642 2387.424561,269.560669 2389.484619,260.560059 
	C2378.626709,257.571045 2368.560303,253.707733 2358.149414,252.157745 
	C2335.392822,248.769653 2314.314697,254.977066 2293.813965,266.304565 
M1441.563843,251.640167 
	C1434.981079,249.851959 1428.432007,250.710709 1422.578613,253.615479 
	C1412.329834,258.701447 1402.422974,264.485657 1392.452271,270.117828 
	C1389.029785,272.051086 1385.844727,274.404480 1381.903687,276.990814 
	C1382.038696,274.814331 1382.020752,273.535400 1382.210083,272.287933 
	C1384.388550,257.937164 1378.987427,252.503815 1364.599609,253.696899 
	C1346.825562,255.170776 1334.772217,266.994385 1319.996948,277.127777 
	C1324.038452,276.749969 1326.599121,276.364502 1329.168335,276.295074 
	C1342.056152,275.946747 1347.214966,281.377777 1345.028687,294.011841 
	C1343.388184,303.491547 1340.659180,312.781128 1338.464844,322.167053 
	C1332.143555,349.206085 1325.832031,376.247406 1319.551147,403.295868 
	C1317.677612,411.364410 1319.862549,416.346405 1326.584595,418.585144 
	C1329.028564,419.399078 1331.831055,419.541870 1334.437012,419.397400 
	C1350.184204,418.524567 1359.526001,407.274597 1370.579834,397.033142 
	C1368.950317,397.033142 1368.184692,397.021729 1367.419556,397.034882 
	C1359.073486,397.178314 1355.488647,393.299500 1356.419556,385.032959 
	C1356.623779,383.218933 1357.015503,381.418640 1357.426758,379.636475 
	C1360.641602,365.703339 1363.860107,351.770966 1367.120361,337.848480 
	C1370.947144,321.507416 1374.211426,304.990143 1381.593506,289.721954 
	C1389.972534,272.391357 1397.162109,270.034180 1413.871948,279.060303 
	C1414.896118,279.613495 1415.953857,280.112488 1416.938599,280.728577 
	C1421.983887,283.884888 1427.576782,284.811737 1433.276001,283.878693 
	C1452.746216,280.690948 1468.580078,270.950653 1481.585938,256.237091 
	C1479.177856,256.809479 1476.936279,257.749786 1474.740112,258.785919 
	C1467.592896,262.157623 1460.742310,262.112732 1453.885254,257.733734 
	C1450.271851,255.426086 1446.218872,253.806870 1441.563843,251.640167 
M1268.740723,396.093292 
	C1260.028687,393.571167 1257.035278,389.076660 1258.283569,380.263611 
	C1258.562988,378.290741 1259.003418,376.335876 1259.456787,374.393036 
	C1268.787476,334.417328 1278.133545,294.445282 1287.459351,254.468445 
	C1287.785645,253.070175 1287.934692,251.630569 1288.166260,250.210236 
	C1287.775146,249.764038 1287.383911,249.317856 1286.992798,248.871658 
	C1264.610962,262.134552 1242.229248,275.397430 1219.847412,288.660309 
	C1220.088501,289.109680 1220.329468,289.559082 1220.570557,290.008453 
	C1221.864502,289.760223 1223.155151,289.492889 1224.452881,289.266663 
	C1240.227539,286.516327 1245.723999,292.090881 1242.332153,307.905640 
	C1238.916992,323.829315 1235.028931,339.650909 1231.486572,355.548065 
	C1228.053955,370.952332 1224.322998,386.313416 1221.624268,401.849976 
	C1219.701416,412.919678 1224.936279,418.418396 1236.144775,419.119476 
	C1250.598511,420.023529 1276.316284,408.084198 1285.421387,396.250031 
	C1280.136108,396.250031 1274.850952,396.250031 1268.740723,396.093292 
M2484.537598,267.099091 
	C2485.804688,261.482300 2487.071777,255.865509 2488.338623,250.248703 
	C2487.893066,249.798187 2487.447266,249.347672 2487.001465,248.897156 
	C2464.631348,262.149231 2442.260986,275.401306 2419.890869,288.653412 
	C2420.124756,289.047546 2420.358398,289.441681 2420.592285,289.835815 
	C2424.385742,289.399323 2428.170654,288.716766 2431.974854,288.579132 
	C2439.220703,288.317017 2442.973633,291.686768 2443.237305,298.863007 
	C2443.364258,302.315063 2443.016113,305.880768 2442.256592,309.253815 
	C2436.773438,333.595245 2431.035645,357.879456 2425.593506,382.229858 
	C2423.930176,389.672241 2422.366455,397.221222 2421.791260,404.799896 
	C2421.152832,413.209351 2425.148682,417.801331 2433.391113,418.744232 
	C2438.113037,419.284393 2443.115723,419.197998 2447.760254,418.254181 
	C2462.763428,415.205475 2474.047852,405.398773 2486.750732,396.223175 
	C2482.936279,396.522644 2480.162842,396.899475 2477.385254,396.932251 
	C2461.072998,397.124725 2455.909424,390.679230 2459.567383,374.864716 
	C2467.813965,339.209625 2476.044434,303.550781 2484.537598,267.099091 
M1306.536987,167.826416 
	C1309.049438,157.017700 1311.562012,146.208984 1314.074585,135.400253 
	C1313.550659,135.206696 1313.026733,135.013153 1312.502808,134.819595 
	C1301.019897,141.758621 1289.523193,148.675018 1278.081543,155.681427 
	C1277.202393,156.219818 1276.322021,157.305084 1276.100708,158.284866 
	C1273.591309,169.396530 1271.210327,180.537186 1268.525513,192.912384 
	C1280.744629,185.593109 1292.354858,178.685089 1303.887817,171.650269 
	C1304.915405,171.023438 1305.440674,169.573029 1306.536987,167.826416 
M2504.160156,171.575531 
	C2510.883789,160.326447 2510.984619,147.455292 2513.942627,134.937653 
	C2512.777588,135.113342 2512.401855,135.069397 2512.144531,135.223450 
	C2504.015137,140.092926 2496.171631,145.539490 2487.699463,149.709106 
	C2479.375000,153.806137 2474.879150,159.403183 2473.926270,168.859055 
	C2473.156982,176.495911 2470.531006,183.945709 2468.356934,193.032166 
	C2480.897461,185.571930 2492.256104,178.814758 2504.160156,171.575531 
M1319.055420,277.447815 
	C1319.055420,277.447815 1319.149902,277.461090 1319.055420,277.447815 
M1371.424438,396.395142 
	C1371.424438,396.395142 1371.305664,396.535187 1371.305664,396.535187 
	C1371.305664,396.535187 1371.504028,396.546631 1371.424438,396.395142 
M1081.225708,396.493835 
	C1081.225708,396.493835 1081.445068,396.582092 1081.445068,396.582092 
	C1081.445068,396.582092 1081.387939,396.369934 1081.225708,396.493835 
M1823.488892,395.447662 
	C1823.488892,395.447662 1823.423706,395.463287 1823.488892,395.447662 
M1002.568542,391.521057 
	C1002.568542,391.521057 1002.395935,391.427429 1002.395935,391.427429 
	C1002.395935,391.427429 1002.422729,391.606262 1002.568542,391.521057 
M2066.427734,365.876678 
	C2066.499512,365.675415 2066.571045,365.474152 2066.642822,365.272858 
	C2066.436279,365.336975 2066.229980,365.401093 2066.427734,365.876678 
z"/>
<path fill="#FFFFFF" opacity="1.000000" stroke="none" 
	d="
M0.999997,486.500000 
	C85.480865,486.000000 169.961731,486.000000 254.122589,486.000000 
	C254.122589,459.676208 254.122589,433.653595 254.122589,407.109467 
	C241.392487,407.109467 229.260864,407.371246 217.145020,407.045410 
	C200.781387,406.605377 187.151047,400.040405 176.721466,387.337067 
	C169.610779,378.676178 166.012970,368.617279 166.010605,357.377716 
	C165.992996,273.880127 165.952698,190.382462 166.029236,106.884933 
	C166.053619,80.278839 188.309052,58.302883 216.112808,57.063774 
	C216.612213,57.041515 217.112335,57.023689 217.612122,57.023674 
	C328.442200,57.020409 439.272491,56.906502 550.102112,57.130215 
	C568.161865,57.166668 582.909912,65.050125 593.481873,79.951134 
	C599.126099,87.906631 601.937500,96.916191 601.941528,106.672501 
	C601.975891,190.336731 602.044739,274.001099 601.909973,357.665131 
	C601.868286,383.543915 580.058167,405.481171 553.490723,406.984375 
	C550.332214,407.163086 547.160278,407.147186 543.994568,407.147766 
	C492.662720,407.157013 441.330688,407.101990 389.999512,407.286652 
	C386.975677,407.297516 383.444305,408.531738 381.016479,410.352905 
	C349.300354,434.143799 317.740021,458.142395 286.145081,482.094788 
	C284.853516,483.073914 283.606384,484.111725 281.237427,485.999786 
	C1147.681396,485.999786 2012.871948,485.999786 2878.531250,485.999908 
	C2878.666748,486.666687 2878.452393,487.783630 2877.976562,487.909027 
	C2876.885742,488.196381 2875.667725,488.000000 2874.501221,488.000000 
	C1918.167114,488.000000 961.832947,488.000458 5.498843,487.958862 
	C3.999209,487.958801 2.499608,487.333374 0.999997,486.500000 
M511.364990,247.303116 
	C508.346283,237.684311 502.221313,230.678085 492.999298,226.780411 
	C487.366516,224.399704 481.433167,222.637283 475.514313,221.045135 
	C462.354614,217.505157 449.079224,214.393188 435.933502,210.804504 
	C430.379578,209.288345 426.632416,205.506607 426.157288,199.469986 
	C425.677765,193.376602 427.753662,188.341919 433.273407,185.122681 
	C443.658752,179.065750 454.671295,179.501938 465.676605,182.553940 
	C475.150970,185.181335 480.225983,191.976547 481.009735,201.638824 
	C490.624359,201.638824 499.731140,201.638824 509.247894,201.638824 
	C508.842773,186.357224 503.096313,174.278229 490.349945,166.025223 
	C473.211517,154.928452 454.432190,153.992188 435.049286,157.759613 
	C423.548950,159.994919 413.801727,165.312729 406.623138,174.833267 
	C389.761658,197.195770 398.691589,227.034073 425.035706,235.872086 
	C431.325104,237.982071 437.863342,239.345673 444.275177,241.096313 
	C455.317291,244.111176 466.628052,246.417206 477.305847,250.411346 
	C487.293701,254.147385 488.843994,266.408661 480.859192,273.669830 
	C478.365173,275.937836 475.066071,277.728394 471.824707,278.688751 
	C462.751312,281.377075 453.430206,281.617767 444.141663,279.716827 
	C434.611725,277.766449 428.415070,272.178528 426.144440,262.541840 
	C425.770172,260.953400 425.335419,259.379181 424.953064,257.893341 
	C415.494202,257.893341 406.412598,257.893341 397.361023,257.893341 
	C395.990692,276.459076 407.293945,292.758545 426.708771,299.948883 
	C442.730621,305.882660 459.263885,306.591248 475.895630,303.171478 
	C504.824249,297.223206 517.963318,276.811615 511.364990,247.303116 
M311.573608,160.109299 
	C302.098999,160.109360 302.119415,160.116623 298.975281,168.955612 
	C283.873199,211.411713 268.758392,253.863266 253.652145,296.317871 
	C253.068481,297.958252 252.525848,299.613220 251.806976,301.722351 
	C261.729828,301.722351 270.890564,301.864532 280.036804,301.564789 
	C281.366241,301.521240 283.275055,299.601318 283.809235,298.144043 
	C286.497650,290.810120 288.652191,283.278656 291.409241,275.973236 
	C291.962677,274.506775 294.302521,272.788574 295.843567,272.764282 
	C311.004059,272.525452 326.170288,272.681641 341.333618,272.562531 
	C343.991058,272.541656 345.147766,273.529022 345.876160,275.963776 
	C348.116028,283.450714 350.465485,290.908234 352.979370,298.306824 
	C353.423218,299.613037 354.838867,301.531128 355.847229,301.557159 
	C365.446320,301.804657 375.054321,301.704773 384.776093,301.704773 
	C384.776093,300.705170 384.906860,300.182709 384.757538,299.758972 
	C368.673706,254.122284 352.593903,208.484100 336.337067,162.909073 
	C335.880432,161.628952 333.553436,160.303940 332.042542,160.235382 
	C325.556946,159.941071 319.050293,160.109497 311.573608,160.109299 
z"/>
<path fill="#FFFEFD" opacity="1.000000" stroke="none" 
	d="
M1786.429077,172.609268 
	C1797.872803,165.505234 1809.210815,158.223022 1820.790771,151.348465 
	C1831.774902,144.827698 1843.012573,138.733978 1854.971436,131.982315 
	C1854.858765,134.306442 1854.970703,135.418381 1854.731445,136.448669 
	C1836.547241,214.717453 1818.325195,292.977448 1800.158569,371.250305 
	C1799.371338,374.641846 1798.805664,378.130035 1798.593628,381.601105 
	C1798.051270,390.481201 1802.477295,395.434387 1811.350952,395.996765 
	C1814.770630,396.213501 1818.215454,396.032104 1822.975830,396.032104 
	C1809.106323,406.423615 1796.407227,416.196503 1779.822998,418.702332 
	C1779.165527,418.801697 1778.496826,418.837891 1777.831665,418.873383 
	C1763.670898,419.629059 1758.895752,414.424347 1760.920898,400.428711 
	C1761.156616,398.799652 1761.463501,397.180878 1761.902588,394.578125 
	C1759.331909,396.167297 1757.351440,397.426086 1755.338501,398.630371 
	C1741.484985,406.918579 1727.816895,415.555511 1711.500977,418.484283 
	C1700.402832,420.476440 1689.536865,419.804718 1679.062012,415.791473 
	C1662.946411,409.617004 1655.601562,396.892792 1654.001343,380.391479 
	C1651.912476,358.850677 1657.359375,338.964264 1668.804688,320.902191 
	C1692.160767,284.043610 1725.034424,260.664917 1768.238892,252.558624 
	C1772.639648,251.732941 1777.173584,251.384918 1781.655884,251.288849 
	C1786.128174,251.192993 1790.613281,251.692764 1795.641968,251.960663 
	C1798.254028,240.792282 1800.911499,229.512558 1803.525757,218.222809 
	C1805.515015,209.632675 1807.449097,201.029770 1809.408691,192.432816 
	C1809.445679,192.270493 1809.507812,192.113556 1809.540161,191.950516 
	C1812.863892,175.212921 1807.480957,169.702820 1790.827393,172.751068 
	C1789.702148,172.957016 1788.522217,172.864578 1786.942139,172.753723 
	C1786.516357,172.596542 1786.429077,172.609268 1786.429077,172.609268 
M1748.401245,273.817871 
	C1728.099487,272.664703 1713.564575,281.837097 1703.707764,299.062408 
	C1692.470093,318.700928 1688.634521,339.846893 1692.220093,362.125244 
	C1694.610474,376.977661 1701.745239,388.740479 1716.765869,394.031403 
	C1732.468872,399.562561 1747.302979,398.349579 1760.273926,387.092804 
	C1762.755737,384.938995 1765.083862,381.731903 1765.846069,378.610901 
	C1772.118042,352.934143 1778.078369,327.179871 1783.884644,301.393097 
	C1784.440918,298.922241 1783.982788,295.731689 1782.843384,293.450745 
	C1775.991699,279.733948 1763.910278,274.601440 1748.401245,273.817871 
z"/>
<path fill="#FFFEFD" opacity="1.000000" stroke="none" 
	d="
M1000.791870,393.461761 
	C992.529480,398.391815 984.459412,403.689575 975.946960,408.141388 
	C968.471191,412.050995 960.725647,415.745575 952.694336,418.221344 
	C940.674011,421.926849 933.696350,417.734406 931.886108,405.451202 
	C929.632629,390.160553 928.394775,374.708984 927.064880,359.296967 
	C925.935547,346.208588 925.298523,333.077759 924.394470,319.211761 
	C911.890564,324.920563 899.290100,326.760040 886.519958,327.395203 
	C875.876099,327.924561 865.200012,327.788269 854.549988,328.229858 
	C852.704956,328.306366 850.254456,329.296082 849.204102,330.701447 
	C832.792603,352.660706 814.645081,373.025513 794.296326,391.413574 
	C793.838074,391.827637 793.488892,392.362396 792.610535,393.412903 
	C810.867554,394.081207 828.286133,393.290680 845.618408,387.922791 
	C845.990601,387.989563 845.942688,387.933990 845.942688,387.933990 
	C830.238953,400.180023 813.481079,410.647491 793.479431,413.753876 
	C780.888794,415.709381 768.020325,415.876190 754.001526,416.942413 
	C755.235168,415.149628 755.471985,414.563049 755.901917,414.215393 
	C783.005920,392.296631 804.519348,365.390472 824.027954,336.848785 
	C850.517883,298.093384 876.537231,259.015625 902.640381,219.997177 
	C906.853333,213.699738 910.454041,206.992661 914.848694,199.617523 
	C894.526062,199.202530 875.250854,199.618118 855.818909,205.362946 
	C884.015442,180.579575 916.711853,174.016022 952.821228,177.823914 
	C953.424072,185.186844 954.152039,193.074860 954.702087,200.975250 
	C956.819031,231.381531 958.684937,261.806671 961.015747,292.196259 
	C963.269531,321.582825 965.820190,350.949280 968.563293,380.294434 
	C969.787048,393.386047 976.479797,397.952148 989.438232,395.411194 
	C993.003662,394.712097 996.522461,393.774689 1000.429688,393.171936 
	C1000.796692,393.397217 1000.791870,393.461761 1000.791870,393.461761 
M884.459351,279.942596 
	C878.873169,288.078400 873.286987,296.214172 867.235107,305.028229 
	C886.539673,305.028229 904.734375,305.028229 923.116455,305.028229 
	C921.244019,280.228729 919.432251,256.232697 917.527466,231.004974 
	C906.206238,247.773315 895.544373,263.565094 884.459351,279.942596 
z"/>
<path fill="#FFFEFD" opacity="1.000000" stroke="none" 
	d="
M1905.874146,395.231079 
	C1900.972046,400.145935 1896.456909,405.544830 1891.068848,409.851776 
	C1884.505127,415.098328 1876.778564,418.453583 1868.185425,418.858185 
	C1859.200684,419.281311 1854.069580,414.871246 1854.157593,405.872131 
	C1854.230225,398.438782 1854.890625,390.848663 1856.554565,383.618896 
	C1871.066406,320.565613 1885.897705,257.585907 1900.505005,194.554443 
	C1901.584717,189.895294 1902.091797,185.005753 1902.111572,180.220184 
	C1902.145996,171.868530 1898.224854,168.493576 1889.809570,169.156326 
	C1886.349731,169.428833 1882.926880,170.172684 1878.878052,169.674225 
	C1901.541626,156.403122 1924.205200,143.132004 1948.188721,129.088013 
	C1936.207886,180.576019 1924.567505,230.601501 1912.631592,281.896362 
	C1915.019165,280.295654 1916.433960,279.355804 1917.840088,278.403015 
	C1933.248291,267.961548 1949.575317,259.460358 1967.932861,255.575928 
	C1976.960815,253.665619 1985.839233,254.588669 1994.181885,258.864563 
	C2004.357910,264.080170 2009.851685,274.836670 2007.354248,285.983246 
	C2000.845215,315.035004 1993.991455,344.009369 1987.425293,373.048553 
	C1986.404541,377.563110 1985.745117,382.249512 1985.673828,386.868103 
	C1985.557495,394.415039 1989.117798,398.055389 1996.727417,397.813019 
	C2001.736084,397.653534 2006.704346,396.230896 2012.438110,395.245422 
	C1998.723999,407.772430 1984.347900,417.562286 1965.720703,418.822144 
	C1953.004883,419.682159 1946.988403,414.121735 1948.960938,401.665588 
	C1951.296387,386.916992 1955.184204,372.411194 1958.481934,357.818878 
	C1962.074585,341.921112 1965.884766,326.071289 1969.323364,310.140808 
	C1970.191284,306.119629 1970.360962,301.859650 1970.234131,297.728363 
	C1969.859009,285.504181 1964.738281,280.008698 1952.556030,278.208984 
	C1934.147705,275.489471 1920.056763,281.854828 1912.353271,298.872559 
	C1906.782104,311.180176 1903.287354,324.509888 1899.704224,337.612885 
	C1895.845947,351.721130 1892.924805,366.087463 1889.690918,380.362976 
	C1889.069214,383.107666 1888.602905,385.949799 1888.570190,388.752869 
	C1888.497681,394.945770 1891.840454,397.560913 1897.863647,396.309204 
	C1900.297119,395.803467 1902.708984,395.192902 1905.472900,394.896606 
	C1905.815308,395.163239 1905.874146,395.231079 1905.874146,395.231079 
z"/>
<path fill="#FFFDFD" opacity="1.000000" stroke="none" 
	d="
M2193.372559,211.328323 
	C2196.913330,205.528458 2196.206543,202.510025 2189.857422,200.253235 
	C2169.694092,193.086105 2149.255615,192.769440 2129.256104,200.334274 
	C2114.850586,205.783188 2107.506836,217.268967 2106.218506,232.589554 
	C2104.987305,247.236740 2110.943359,258.778168 2123.482910,265.536591 
	C2134.509766,271.479706 2146.635986,275.425415 2158.386963,279.968872 
	C2167.527100,283.502838 2177.235840,285.779083 2185.994385,290.046204 
	C2210.666016,302.066223 2218.026123,317.397919 2206.979248,345.848297 
	C2203.417236,355.021271 2197.212646,364.002319 2190.061768,370.805878 
	C2155.672607,403.525146 2114.482422,420.694763 2066.780518,419.669739 
	C2055.974609,419.437500 2045.242676,414.686798 2034.538086,411.789307 
	C2032.534790,411.247070 2030.707275,409.778198 2028.998169,408.475128 
	C2022.503418,403.523193 2021.774170,397.800476 2026.661011,391.181030 
	C2026.759888,391.046875 2026.849609,390.904572 2026.959595,390.780212 
	C2037.463989,378.904907 2051.441406,372.407471 2065.856934,366.144257 
	C2065.241211,367.170135 2064.630615,368.199127 2064.008789,369.221344 
	C2060.247314,375.404633 2061.421631,382.146362 2067.308105,386.415497 
	C2074.781006,391.835205 2083.475342,394.018097 2092.441650,395.380676 
	C2107.893066,397.728729 2123.311523,398.323456 2138.511230,393.917572 
	C2158.195312,388.211823 2171.538574,376.494537 2174.553467,355.174622 
	C2176.489502,341.486115 2172.815674,329.454742 2161.369141,321.735474 
	C2151.974365,315.399689 2141.314453,310.786102 2130.860352,306.221405 
	C2121.739258,302.238708 2111.971924,299.751740 2102.774414,295.922058 
	C2095.755371,292.999481 2088.739746,289.651154 2082.499023,285.362701 
	C2069.408936,276.367615 2065.358154,262.551514 2070.491211,247.494873 
	C2073.850586,237.641495 2079.952881,229.539337 2087.304688,222.407700 
	C2111.204834,199.223633 2140.368408,185.501801 2171.791016,175.987442 
	C2186.244629,171.611038 2200.961182,170.885529 2215.741211,174.032776 
	C2220.427246,175.030670 2225.024170,176.656952 2229.488037,178.432907 
	C2234.918457,180.593216 2235.703613,183.948517 2231.295898,187.756912 
	C2225.521484,192.746399 2219.380859,197.379166 2213.031982,201.617462 
	C2207.236328,205.486176 2200.953613,208.624542 2194.334473,211.920990 
	C2193.646729,211.614197 2193.509766,211.471252 2193.372559,211.328323 
z"/>
<path fill="#FFFEFD" opacity="1.000000" stroke="none" 
	d="
M1091.618774,280.684296 
	C1104.630615,271.963928 1117.710449,263.194305 1132.888062,258.768280 
	C1140.453369,256.562073 1148.524170,254.985168 1156.358276,255.018616 
	C1176.910767,255.106445 1188.179443,270.267212 1183.492432,290.335236 
	C1177.213013,317.219757 1170.859985,344.087311 1164.687988,370.996399 
	C1163.728394,375.179626 1163.112305,379.546661 1163.130371,383.825378 
	C1163.160278,390.925934 1167.439331,395.368530 1174.524658,395.917694 
	C1179.115356,396.273529 1183.755859,395.984619 1188.234619,395.984619 
	C1174.774780,405.419128 1161.512451,416.362396 1143.632202,418.432922 
	C1130.849243,419.913147 1123.978271,413.882233 1125.990234,401.197906 
	C1128.382324,386.116669 1132.258179,371.271240 1135.475830,356.320343 
	C1138.798706,340.879791 1142.352173,325.481903 1145.259521,309.963226 
	C1146.092285,305.518402 1145.597290,300.609375 1144.721924,296.105469 
	C1142.980591,287.146637 1137.304443,281.435638 1128.426392,279.075500 
	C1112.539795,274.852295 1098.978760,279.528259 1091.503418,294.192505 
	C1085.986816,305.014191 1082.449463,317.003540 1079.232422,328.800476 
	C1074.685059,345.474762 1071.244873,362.451050 1067.336792,379.299500 
	C1066.998291,380.759094 1066.639282,382.217957 1066.393677,383.694397 
	C1064.857178,392.927856 1068.588013,397.230743 1077.872437,396.977722 
	C1078.461670,396.961639 1079.051636,396.975616 1079.809204,397.436249 
	C1068.217896,406.071350 1056.775024,414.951721 1042.631836,418.841644 
	C1031.982788,421.770569 1026.541016,416.687012 1028.933472,405.919220 
	C1034.848389,379.298676 1041.288696,352.795258 1047.437134,326.226074 
	C1049.836792,315.856659 1052.148804,305.463379 1054.268066,295.033722 
	C1057.013794,281.521729 1051.593872,275.440765 1037.822144,276.316162 
	C1035.711914,276.450317 1033.613037,276.764862 1030.104370,277.150299 
	C1044.689209,266.960907 1056.669312,255.069199 1074.484619,253.672211 
	C1088.573853,252.567429 1093.640015,257.440704 1091.982056,271.496063 
	C1091.690186,273.970093 1091.128784,276.412354 1090.501953,279.444641 
	C1090.348145,280.471802 1090.384644,280.923676 1090.421021,281.375519 
	C1090.820312,281.145111 1091.219482,280.914703 1091.618774,280.684296 
z"/>
<path fill="#FFFEFD" opacity="1.000000" stroke="none" 
	d="
M2294.140137,266.135864 
	C2314.314697,254.977066 2335.392822,248.769653 2358.149414,252.157745 
	C2368.560303,253.707733 2378.626709,257.571045 2389.484619,260.560059 
	C2387.424561,269.560669 2385.528809,277.914642 2383.599121,286.260803 
	C2376.671631,316.222076 2369.479492,346.125244 2362.906738,376.164124 
	C2359.705322,390.794891 2364.928711,396.434235 2379.785889,396.117676 
	C2381.609131,396.078827 2383.434082,396.112366 2386.669189,396.112366 
	C2381.338135,399.946960 2376.968506,403.274750 2372.413818,406.326324 
	C2363.937012,412.005859 2355.052734,416.845337 2344.777588,418.461029 
	C2343.465576,418.667358 2342.137939,418.842529 2340.812744,418.883972 
	C2326.846680,419.320801 2321.896729,413.568359 2324.435303,399.903900 
	C2324.704346,398.457764 2324.913818,397.000641 2325.311279,394.566498 
	C2320.168945,397.960266 2315.803955,400.910309 2311.370605,403.753021 
	C2299.689453,411.242889 2287.743408,418.647003 2273.480713,419.149994 
	C2265.491455,419.431702 2257.081299,418.525574 2249.458008,416.198578 
	C2233.773926,411.411316 2225.576660,397.869995 2225.078369,378.290588 
	C2224.355469,349.892639 2234.608398,325.282745 2251.479492,303.061340 
	C2263.012451,287.870728 2277.343262,275.839813 2294.140137,266.135864 
M2340.078857,333.569000 
	C2342.645508,322.550781 2345.247803,311.540588 2347.733643,300.504211 
	C2348.049561,299.101837 2348.187012,297.390381 2347.677246,296.113739 
	C2343.593750,285.892639 2337.043457,278.090973 2325.991943,274.993622 
	C2309.484863,270.367249 2294.030518,275.597809 2283.009521,290.917267 
	C2266.557129,313.786621 2259.514404,339.580444 2262.055908,367.707611 
	C2262.929443,377.373901 2266.934326,386.011322 2275.687500,390.984558 
	C2293.627930,401.177551 2311.368652,399.028748 2326.122803,385.029572 
	C2328.021729,383.227936 2329.246094,380.289459 2329.888184,377.659241 
	C2333.398193,363.275818 2336.628906,348.824188 2340.078857,333.569000 
z"/>
<path fill="#FFFEFD" opacity="1.000000" stroke="none" 
	d="
M1578.489868,277.046204 
	C1588.031860,270.984802 1597.503906,264.808380 1607.159546,258.933960 
	C1609.958740,257.230927 1613.197998,256.070282 1616.384521,255.218719 
	C1626.689575,252.464890 1632.221680,257.146545 1630.413574,267.684967 
	C1628.615967,278.162445 1625.936768,288.492828 1623.525635,298.860168 
	C1617.647827,324.135406 1611.697754,349.393890 1605.792114,374.662689 
	C1605.452148,376.116760 1605.190918,377.594757 1604.989624,379.074738 
	C1603.360718,391.053040 1607.884155,396.073425 1620.185425,395.981567 
	C1622.273560,395.965973 1624.361938,395.979340 1627.535156,395.979340 
	C1614.934204,405.930511 1604.234741,416.708038 1588.339111,418.460266 
	C1586.686035,418.642487 1585.026733,418.867889 1583.368286,418.885895 
	C1572.526001,419.003510 1567.648315,414.126007 1568.031860,403.386261 
	C1568.149658,400.086426 1568.722290,396.802856 1569.197876,392.507263 
	C1566.963501,393.865082 1565.361694,394.846008 1563.752808,395.815033 
	C1547.156982,405.809723 1530.151489,414.873383 1510.807983,418.384888 
	C1507.053833,419.066406 1503.208618,419.500610 1499.396973,419.565857 
	C1482.663696,419.852448 1473.064575,410.025635 1472.003052,391.963837 
	C1471.189453,378.117615 1474.330444,364.845123 1477.424316,351.532867 
	C1481.490601,334.035980 1485.439453,316.511597 1489.371826,298.984070 
	C1489.842529,296.886353 1490.006958,294.700653 1490.121460,292.545563 
	C1490.777832,280.187073 1484.750610,274.643890 1472.423096,276.230530 
	C1470.511719,276.476501 1468.614624,276.833801 1466.563965,276.714355 
	C1479.934204,266.525543 1493.205444,256.297424 1510.434448,253.558136 
	C1524.005615,251.400436 1531.043579,257.914124 1528.270752,271.409912 
	C1523.854614,292.905090 1518.254395,314.154846 1513.665161,335.617462 
	C1511.204346,347.126160 1508.895630,358.805511 1508.164307,370.510681 
	C1507.266602,384.879852 1515.822021,393.338318 1530.045532,396.219421 
	C1546.088257,399.469025 1558.540039,392.380127 1570.739014,383.856171 
	C1571.528076,383.304871 1571.875000,381.905518 1572.125854,380.830292 
	C1578.888794,351.833221 1585.612305,322.826965 1592.340576,293.821808 
	C1592.491089,293.173004 1592.656860,292.524323 1592.750366,291.866333 
	C1594.388062,280.332642 1590.946289,276.532013 1578.994385,277.037659 
	C1578.569946,276.944397 1578.489868,277.046173 1578.489868,277.046204 
z"/>
<path fill="#FFFDFC" opacity="1.000000" stroke="none" 
	d="
M1441.964111,251.758484 
	C1446.218872,253.806870 1450.271851,255.426086 1453.885254,257.733734 
	C1460.742310,262.112732 1467.592896,262.157623 1474.740112,258.785919 
	C1476.936279,257.749786 1479.177856,256.809479 1481.585938,256.237091 
	C1468.580078,270.950653 1452.746216,280.690948 1433.276001,283.878693 
	C1427.576782,284.811737 1421.983887,283.884888 1416.938599,280.728577 
	C1415.953857,280.112488 1414.896118,279.613495 1413.871948,279.060303 
	C1397.162109,270.034180 1389.972534,272.391357 1381.593506,289.721954 
	C1374.211426,304.990143 1370.947144,321.507416 1367.120361,337.848480 
	C1363.860107,351.770966 1360.641602,365.703339 1357.426758,379.636475 
	C1357.015503,381.418640 1356.623779,383.218933 1356.419556,385.032959 
	C1355.488647,393.299500 1359.073486,397.178314 1367.419556,397.034882 
	C1368.184692,397.021729 1368.950317,397.033142 1370.579834,397.033142 
	C1359.526001,407.274597 1350.184204,418.524567 1334.437012,419.397400 
	C1331.831055,419.541870 1329.028564,419.399078 1326.584595,418.585144 
	C1319.862549,416.346405 1317.677612,411.364410 1319.551147,403.295868 
	C1325.832031,376.247406 1332.143555,349.206085 1338.464844,322.167053 
	C1340.659180,312.781128 1343.388184,303.491547 1345.028687,294.011841 
	C1347.214966,281.377777 1342.056152,275.946747 1329.168335,276.295074 
	C1326.599121,276.364502 1324.038452,276.749969 1319.996948,277.127777 
	C1334.772217,266.994385 1346.825562,255.170776 1364.599609,253.696899 
	C1378.987427,252.503815 1384.388550,257.937164 1382.210083,272.287933 
	C1382.020752,273.535400 1382.038696,274.814331 1381.903687,276.990814 
	C1385.844727,274.404480 1389.029785,272.051086 1392.452271,270.117828 
	C1402.422974,264.485657 1412.329834,258.701447 1422.578613,253.615479 
	C1428.432007,250.710709 1434.981079,249.851959 1441.964111,251.758484 
z"/>
<path fill="#FFFEFD" opacity="1.000000" stroke="none" 
	d="
M1269.153320,396.171661 
	C1274.850952,396.250031 1280.136108,396.250031 1285.421387,396.246521 
	C1276.316284,408.084198 1250.598511,420.023529 1236.144775,419.119476 
	C1224.936279,418.418396 1219.701416,412.919678 1221.624268,401.849976 
	C1224.322998,386.313416 1228.053955,370.952332 1231.486572,355.548065 
	C1235.028931,339.650909 1238.916992,323.829315 1242.332153,307.905640 
	C1245.723999,292.090881 1240.227539,286.516327 1224.452881,289.266663 
	C1223.155151,289.492889 1221.864502,289.760223 1220.570557,290.008453 
	C1220.329468,289.559082 1220.088501,289.109680 1219.847412,288.660309 
	C1242.229248,275.397430 1264.610962,262.134552 1286.992798,248.871658 
	C1287.383911,249.317856 1287.775146,249.764038 1288.166260,250.210236 
	C1287.934692,251.630569 1287.785645,253.070175 1287.459351,254.468445 
	C1278.133545,294.445282 1268.787476,334.417328 1259.456787,374.393036 
	C1259.003418,376.335876 1258.562988,378.290741 1258.283569,380.263611 
	C1257.035278,389.076660 1260.028687,393.571167 1269.153320,396.171661 
z"/>
<path fill="#FFFEFD" opacity="1.000000" stroke="none" 
	d="
M2484.409668,267.496277 
	C2476.044434,303.550781 2467.813965,339.209625 2459.567383,374.864716 
	C2455.909424,390.679230 2461.072998,397.124725 2477.385254,396.932251 
	C2480.162842,396.899475 2482.936279,396.522644 2486.750732,396.223175 
	C2474.047852,405.398773 2462.763428,415.205475 2447.760254,418.254181 
	C2443.115723,419.197998 2438.113037,419.284393 2433.391113,418.744232 
	C2425.148682,417.801331 2421.152832,413.209351 2421.791260,404.799896 
	C2422.366455,397.221222 2423.930176,389.672241 2425.593506,382.229858 
	C2431.035645,357.879456 2436.773438,333.595245 2442.256592,309.253815 
	C2443.016113,305.880768 2443.364258,302.315063 2443.237305,298.863007 
	C2442.973633,291.686768 2439.220703,288.317017 2431.974854,288.579132 
	C2428.170654,288.716766 2424.385742,289.399323 2420.592285,289.835815 
	C2420.358398,289.441681 2420.124756,289.047546 2419.890869,288.653412 
	C2442.260986,275.401306 2464.631348,262.149231 2487.001465,248.897156 
	C2487.447266,249.347672 2487.893066,249.798187 2488.338623,250.248703 
	C2487.071777,255.865509 2485.804688,261.482300 2484.409668,267.496277 
z"/>
<path fill="#FFFDFB" opacity="1.000000" stroke="none" 
	d="
M1306.368164,168.165771 
	C1305.440674,169.573029 1304.915405,171.023438 1303.887817,171.650269 
	C1292.354858,178.685089 1280.744629,185.593109 1268.525513,192.912384 
	C1271.210327,180.537186 1273.591309,169.396530 1276.100708,158.284866 
	C1276.322021,157.305084 1277.202393,156.219818 1278.081543,155.681427 
	C1289.523193,148.675018 1301.019897,141.758621 1312.502808,134.819595 
	C1313.026733,135.013153 1313.550659,135.206696 1314.074585,135.400253 
	C1311.562012,146.208984 1309.049438,157.017700 1306.368164,168.165771 
z"/>
<path fill="#FFFCFB" opacity="1.000000" stroke="none" 
	d="
M2503.887695,171.816559 
	C2492.256104,178.814758 2480.897461,185.571930 2468.356934,193.032166 
	C2470.531006,183.945709 2473.156982,176.495911 2473.926270,168.859055 
	C2474.879150,159.403183 2479.375000,153.806137 2487.699463,149.709106 
	C2496.171631,145.539490 2504.015137,140.092926 2512.144531,135.223450 
	C2512.401855,135.069397 2512.777588,135.113342 2513.942627,134.937653 
	C2510.984619,147.455292 2510.883789,160.326447 2503.887695,171.816559 
z"/>
<path fill="#FFFEFD" opacity="1.000000" stroke="none" 
	d="
M846.015625,388.016479 
	C846.277710,387.764984 846.514832,387.486603 846.751953,387.208191 
	C846.923645,387.363281 847.095459,387.518341 847.267212,387.673401 
	C846.997681,387.811127 846.728149,387.948853 846.200684,388.010284 
	C845.942688,387.933990 845.990601,387.989563 846.015625,388.016479 
z"/>
<path fill="#FFFDFD" opacity="1.000000" stroke="none" 
	d="
M2193.982422,211.977554 
	C2193.454834,212.421997 2192.727783,212.646011 2191.667480,212.707031 
	C2191.333740,212.544037 2191.307129,212.482498 2191.307129,212.482483 
	C2191.833496,212.219452 2192.359619,211.956421 2193.129395,211.510864 
	C2193.509766,211.471252 2193.646729,211.614197 2193.982422,211.977554 
z"/>
<path fill="#FFFDFC" opacity="1.000000" stroke="none" 
	d="
M1319.102661,277.454468 
	C1319.149902,277.461090 1319.055420,277.447815 1319.102661,277.454468 
z"/>
<path fill="#FFFEFD" opacity="1.000000" stroke="none" 
	d="
M1786.519287,172.552490 
	C1786.522217,172.508423 1786.630127,172.843414 1786.630127,172.843414 
	C1786.630127,172.843414 1786.683960,172.524109 1786.556519,172.566681 
	C1786.429077,172.609268 1786.516357,172.596542 1786.519287,172.552490 
z"/>
<path fill="#FFFDFD" opacity="1.000000" stroke="none" 
	d="
M2191.302002,212.516510 
	C2191.441162,212.795151 2191.611816,213.101318 2191.782715,213.407501 
	C2191.682617,213.420715 2191.582275,213.433929 2191.482178,213.447113 
	C2191.465576,213.306320 2191.448975,213.165527 2191.369629,212.753601 
	C2191.307129,212.482498 2191.333740,212.544037 2191.302002,212.516510 
z"/>
<path fill="#FFFDFC" opacity="1.000000" stroke="none" 
	d="
M1371.464233,396.470886 
	C1371.504028,396.546631 1371.305664,396.535187 1371.305664,396.535187 
	C1371.305664,396.535187 1371.424438,396.395142 1371.464233,396.470886 
z"/>
<path fill="#FFFEFD" opacity="1.000000" stroke="none" 
	d="
M1081.306885,396.431885 
	C1081.387939,396.369934 1081.445068,396.582092 1081.445068,396.582092 
	C1081.445068,396.582092 1081.225708,396.493835 1081.306885,396.431885 
z"/>
<path fill="#FFFEFD" opacity="1.000000" stroke="none" 
	d="
M1823.456299,395.455475 
	C1823.423706,395.463287 1823.488892,395.447662 1823.456299,395.455475 
z"/>
<path fill="#FFFEFD" opacity="1.000000" stroke="none" 
	d="
M1905.865967,395.179169 
	C1905.573242,395.052521 1905.229980,394.909912 1904.886719,394.767334 
	C1905.093018,394.777130 1905.299194,394.786926 1905.689819,395.013916 
	C1905.874146,395.231079 1905.815308,395.163239 1905.865967,395.179169 
z"/>
<path fill="#FFFEFD" opacity="1.000000" stroke="none" 
	d="
M1000.828491,393.423035 
	C1000.668640,393.086548 1000.476990,392.724304 1000.285278,392.362061 
	C1000.435730,392.516907 1000.586182,392.671783 1000.764221,393.144226 
	C1000.791870,393.461761 1000.796692,393.397217 1000.828491,393.423035 
z"/>
<path fill="#FFFEFD" opacity="1.000000" stroke="none" 
	d="
M1002.495605,391.563660 
	C1002.422729,391.606262 1002.395935,391.427429 1002.395935,391.427429 
	C1002.395935,391.427429 1002.568542,391.521057 1002.495605,391.563660 
z"/>
<path fill="#FFFDFD" opacity="1.000000" stroke="none" 
	d="
M2066.225586,365.670959 
	C2066.229980,365.401093 2066.436279,365.336975 2066.642822,365.272888 
	C2066.571045,365.474152 2066.499512,365.675415 2066.225586,365.670959 
z"/>
<path fill="#FFFEFD" opacity="1.000000" stroke="none" 
	d="
M1578.538818,276.887573 
	C1578.565918,276.918762 1578.624023,277.006744 1578.682007,277.094788 
	C1578.756226,277.037811 1578.830444,276.980835 1578.904541,276.923767 
	C1578.818726,276.868500 1578.732910,276.813263 1578.568481,276.902100 
	C1578.489868,277.046173 1578.569946,276.944397 1578.538818,276.887573 
z"/>
<path fill="#F56C13" opacity="1.000000" stroke="none" 
	d="
M511.521973,247.679596 
	C517.963318,276.811615 504.824249,297.223206 475.895630,303.171478 
	C459.263885,306.591248 442.730621,305.882660 426.708771,299.948883 
	C407.293945,292.758545 395.990692,276.459076 397.361023,257.893341 
	C406.412598,257.893341 415.494202,257.893341 424.953064,257.893341 
	C425.335419,259.379181 425.770172,260.953400 426.144440,262.541840 
	C428.415070,272.178528 434.611725,277.766449 444.141663,279.716827 
	C453.430206,281.617767 462.751312,281.377075 471.824707,278.688751 
	C475.066071,277.728394 478.365173,275.937836 480.859192,273.669830 
	C488.843994,266.408661 487.293701,254.147385 477.305847,250.411346 
	C466.628052,246.417206 455.317291,244.111176 444.275177,241.096313 
	C437.863342,239.345673 431.325104,237.982071 425.035706,235.872086 
	C398.691589,227.034073 389.761658,197.195770 406.623138,174.833267 
	C413.801727,165.312729 423.548950,159.994919 435.049286,157.759613 
	C454.432190,153.992188 473.211517,154.928452 490.349945,166.025223 
	C503.096313,174.278229 508.842773,186.357224 509.247894,201.638824 
	C499.731140,201.638824 490.624359,201.638824 481.009735,201.638824 
	C480.225983,191.976547 475.150970,185.181335 465.676605,182.553940 
	C454.671295,179.501938 443.658752,179.065750 433.273407,185.122681 
	C427.753662,188.341919 425.677765,193.376602 426.157288,199.469986 
	C426.632416,205.506607 430.379578,209.288345 435.933502,210.804504 
	C449.079224,214.393188 462.354614,217.505157 475.514313,221.045135 
	C481.433167,222.637283 487.366516,224.399704 492.999298,226.780411 
	C502.221313,230.678085 508.346283,237.684311 511.521973,247.679596 
z"/>
<path fill="#F56D14" opacity="1.000000" stroke="none" 
	d="
M312.062469,160.109299 
	C319.050293,160.109497 325.556946,159.941071 332.042542,160.235382 
	C333.553436,160.303940 335.880432,161.628952 336.337067,162.909073 
	C352.593903,208.484100 368.673706,254.122284 384.757538,299.758972 
	C384.906860,300.182709 384.776093,300.705170 384.776093,301.704773 
	C375.054321,301.704773 365.446320,301.804657 355.847229,301.557159 
	C354.838867,301.531128 353.423218,299.613037 352.979370,298.306824 
	C350.465485,290.908234 348.116028,283.450714 345.876160,275.963776 
	C345.147766,273.529022 343.991058,272.541656 341.333618,272.562531 
	C326.170288,272.681641 311.004059,272.525452 295.843567,272.764282 
	C294.302521,272.788574 291.962677,274.506775 291.409241,275.973236 
	C288.652191,283.278656 286.497650,290.810120 283.809235,298.144043 
	C283.275055,299.601318 281.366241,301.521240 280.036804,301.564789 
	C270.890564,301.864532 261.729828,301.722351 251.806976,301.722351 
	C252.525848,299.613220 253.068481,297.958252 253.652145,296.317871 
	C268.758392,253.863266 283.873199,211.411713 298.975281,168.955612 
	C302.119415,160.116623 302.098999,160.109360 312.062469,160.109299 
M321.498291,248.262726 
	C326.398163,248.262726 331.298035,248.262726 336.940918,248.262726 
	C330.973267,229.718719 325.283295,212.037567 319.593323,194.356415 
	C319.223389,194.370514 318.853455,194.384613 318.483521,194.398697 
	C312.621063,212.169220 306.758636,229.939728 300.713928,248.262741 
	C307.897186,248.262741 314.197876,248.262741 321.498291,248.262726 
z"/>
<path fill="#F56C12" opacity="1.000000" stroke="none" 
	d="
M1748.878418,273.839355 
	C1763.910278,274.601440 1775.991699,279.733948 1782.843384,293.450745 
	C1783.982788,295.731689 1784.440918,298.922241 1783.884644,301.393097 
	C1778.078369,327.179871 1772.118042,352.934143 1765.846069,378.610901 
	C1765.083862,381.731903 1762.755737,384.938995 1760.273926,387.092804 
	C1747.302979,398.349579 1732.468872,399.562561 1716.765869,394.031403 
	C1701.745239,388.740479 1694.610474,376.977661 1692.220093,362.125244 
	C1688.634521,339.846893 1692.470093,318.700928 1703.707764,299.062408 
	C1713.564575,281.837097 1728.099487,272.664703 1748.878418,273.839355 
z"/>
<path fill="#F56D14" opacity="1.000000" stroke="none" 
	d="
M884.670898,279.649719 
	C895.544373,263.565094 906.206238,247.773315 917.527466,231.004974 
	C919.432251,256.232697 921.244019,280.228729 923.116455,305.028229 
	C904.734375,305.028229 886.539673,305.028229 867.235107,305.028229 
	C873.286987,296.214172 878.873169,288.078400 884.670898,279.649719 
z"/>
<path fill="#F56B11" opacity="1.000000" stroke="none" 
	d="
M1091.380615,280.434418 
	C1091.219482,280.914703 1090.820312,281.145111 1090.421021,281.375519 
	C1090.384644,280.923676 1090.348145,280.471802 1090.487427,279.853821 
	C1090.822754,279.853333 1090.982544,280.018921 1091.380615,280.434418 
z"/>
<path fill="#F56C12" opacity="1.000000" stroke="none" 
	d="
M2340.017090,333.982483 
	C2336.628906,348.824188 2333.398193,363.275818 2329.888184,377.659241 
	C2329.246094,380.289459 2328.021729,383.227936 2326.122803,385.029572 
	C2311.368652,399.028748 2293.627930,401.177551 2275.687500,390.984558 
	C2266.934326,386.011322 2262.929443,377.373901 2262.055908,367.707611 
	C2259.514404,339.580444 2266.557129,313.786621 2283.009521,290.917267 
	C2294.030518,275.597809 2309.484863,270.367249 2325.991943,274.993622 
	C2337.043457,278.090973 2343.593750,285.892639 2347.677246,296.113739 
	C2348.187012,297.390381 2348.049561,299.101837 2347.733643,300.504211 
	C2345.247803,311.540588 2342.645508,322.550781 2340.017090,333.982483 
z"/>
<path fill="#FFFDFC" opacity="1.000000" stroke="none" 
	d="
M320.998444,248.262726 
	C314.197876,248.262741 307.897186,248.262741 300.713928,248.262741 
	C306.758636,229.939728 312.621063,212.169220 318.483521,194.398697 
	C318.853455,194.384613 319.223389,194.370514 319.593323,194.356415 
	C325.283295,212.037567 330.973267,229.718719 336.940918,248.262726 
	C331.298035,248.262726 326.398163,248.262726 320.998444,248.262726 
z"/>
</svg>