<svg data-v-fde0c5aa="" xmlns="http://www.w3.org/2000/svg" viewBox="20 120 260 50" class="iconLeft"><!----><defs data-v-fde0c5aa=""><!----></defs><defs data-v-fde0c5aa=""><!----></defs><g data-v-fde0c5aa="" id="16fafb58-df96-41fb-9189-047c13f530a2" fill="#F56B11" transform="matrix(2.292485678712946,0,0,2.292485678712946,94.34497855833614,131.0296813365931)"><path d="M1.44 13.16L1.44 13.16Q1.52 13.15 1.88 13.15Q2.24 13.15 2.49 13.14Q2.74 13.12 3.00 13.07L3.00 13.07Q3.59 12.97 3.93 12.78L3.93 12.78Q2.72 13.60 2.31 13.75Q1.91 13.91 1.61 13.97L1.61 13.97Q1.03 14.08 0.15 14.08L0.15 14.08L-0.11 14.08L-0.09 14.05Q0.14 13.86 0.36 13.66Q0.59 13.47 0.97 13.08Q1.35 12.69 1.84 12.08Q2.32 11.47 2.77 10.83Q3.22 10.19 3.65 9.53Q4.07 8.88 4.52 8.21Q4.96 7.55 5.42 6.88Q5.89 6.21 6.13 5.82Q6.36 5.42 6.41 5.34Q6.46 5.25 6.53 5.17L6.53 5.17L6.01 5.17Q4.73 5.17 3.96 5.46L3.96 5.46Q5.13 4.61 5.89 4.40L5.89 4.40Q6.40 4.27 6.99 4.26Q7.57 4.25 8.07 4.25L8.07 4.25Q8.22 6.25 8.35 8.23Q8.48 10.21 8.59 11.30Q8.70 12.39 8.71 12.58Q8.72 12.76 8.78 12.91L8.78 12.91Q8.90 13.25 9.34 13.25L9.34 13.25Q9.78 13.25 10.32 12.94L10.32 12.94Q10.10 13.08 9.78 13.30Q9.45 13.51 9.10 13.71L9.10 13.71Q8.24 14.21 7.79 14.21L7.79 14.21Q7.32 14.21 7.22 13.74L7.22 13.74Q7.07 13.08 7.02 12.00Q6.97 10.92 6.89 10.08L6.89 10.08Q6.19 10.51 3.88 10.46L3.88 10.46Q2.78 11.97 1.44 13.16ZM4.63 9.51L5.98 9.54Q6.41 9.54 6.85 9.51L6.85 9.51Q6.72 7.92 6.62 6.45L6.62 6.45Q5.64 7.94 4.53 9.53L4.53 9.53Q4.61 9.51 4.63 9.51L4.63 9.51ZM16.71 12.70L16.71 12.70Q16.71 13.26 17.33 13.26L17.33 13.26Q17.58 13.26 17.88 13.16L17.88 13.16Q17.18 13.66 16.91 13.82L16.91 13.82Q16.27 14.18 15.79 14.18L15.79 14.18Q15.17 14.18 15.17 13.59L15.17 13.59Q15.17 13.33 15.33 12.70L15.33 12.70L15.92 10.14Q16.00 9.77 16.00 9.51L16.00 9.51Q16.00 8.39 14.84 8.39L14.84 8.39Q13.85 8.39 13.43 9.84L13.43 9.84Q13.32 10.22 13.25 10.53L13.25 10.53L12.76 12.64Q12.73 12.74 12.73 12.87L12.73 12.87Q12.73 13.30 13.10 13.30L13.10 13.30Q13.25 13.30 13.43 13.23L13.43 13.23Q12.09 14.22 11.57 14.22L11.57 14.22Q11.17 14.22 11.17 13.82L11.17 13.82Q11.17 13.64 11.57 11.98Q11.98 10.33 12.11 9.73L12.11 9.73Q12.28 8.98 12.28 8.83L12.28 8.83Q12.28 8.33 11.63 8.33L11.63 8.33Q11.34 8.33 11.03 8.44L11.03 8.44Q11.29 8.35 11.61 8.10L11.61 8.10Q12.24 7.62 12.46 7.55L12.46 7.55Q12.89 7.39 13.23 7.39L13.23 7.39Q13.81 7.39 13.81 7.91L13.81 7.91Q13.81 8.13 13.70 8.57L13.70 8.57Q15.27 7.44 16.36 7.44L16.36 7.44Q16.87 7.44 17.23 7.72L17.23 7.72Q17.60 8.03 17.60 8.53L17.60 8.53Q17.60 8.67 17.57 8.83L17.57 8.83L16.78 12.20Q16.71 12.51 16.71 12.70ZM21.37 3.41L22.91 2.48Q22.72 3.69 22.57 3.96L22.57 3.96Q22.52 4.05 22.10 4.29Q21.67 4.53 21.51 4.63L21.51 4.63Q21.14 4.83 21.02 4.89L21.02 4.89Q21.25 4.18 21.37 3.41L21.37 3.41ZM20.01 9.32L20.01 9.32Q20.01 8.83 19.56 8.83L19.56 8.83Q19.36 8.83 18.96 8.92L18.96 8.92Q21.01 7.60 21.88 7.21L21.88 7.21L20.75 12.03Q20.71 12.21 20.67 12.39Q20.62 12.58 20.62 12.76L20.62 12.76Q20.62 13.29 21.39 13.29L21.39 13.29Q21.58 13.29 21.83 13.24L21.83 13.24Q21.62 13.39 21.38 13.56Q21.15 13.73 20.90 13.88L20.90 13.88Q20.33 14.21 19.86 14.21L19.86 14.21Q19.30 14.21 19.16 13.91L19.16 13.91Q19.11 13.79 19.11 13.63L19.11 13.63Q19.11 13.38 19.17 13.13L19.17 13.13L19.92 9.88Q20.01 9.53 20.01 9.32ZM25.16 7.39L25.16 7.39Q25.75 7.39 25.75 7.93L25.75 7.93Q25.75 8.09 25.68 8.38L25.68 8.38Q25.90 8.24 26.18 8.05Q26.46 7.86 26.76 7.69L26.76 7.69Q27.47 7.28 27.92 7.28L27.92 7.28Q28.18 7.28 28.44 7.43L28.44 7.43Q28.93 7.72 29.06 7.72Q29.18 7.72 29.29 7.69Q29.39 7.66 29.50 7.62L29.50 7.62Q29.71 7.53 29.89 7.44L29.89 7.44Q29.20 8.24 28.23 8.55L28.23 8.55Q27.91 8.65 27.68 8.65Q27.45 8.65 27.31 8.59Q27.17 8.52 27.02 8.44L27.02 8.44Q26.64 8.22 26.44 8.22Q26.24 8.22 26.11 8.32Q25.98 8.42 25.86 8.59Q25.75 8.76 25.66 8.96Q25.57 9.16 25.50 9.37L25.50 9.37Q25.35 9.78 25.30 10.02L25.30 10.02L24.69 12.64Q24.66 12.76 24.66 12.87L24.66 12.87Q24.66 13.30 25.04 13.30L25.04 13.30Q25.19 13.30 25.36 13.23L25.36 13.23Q25.14 13.38 24.96 13.56Q24.79 13.73 24.60 13.88L24.60 13.88Q24.16 14.22 23.65 14.22L23.65 14.22Q23.43 14.22 23.28 14.09Q23.12 13.97 23.12 13.84L23.12 13.84Q23.12 13.69 23.13 13.62L23.13 13.62L24.05 9.68Q24.10 9.47 24.16 9.26Q24.22 9.05 24.22 8.83L24.22 8.83Q24.22 8.33 23.57 8.33L23.57 8.33Q23.28 8.33 22.96 8.44L22.96 8.44Q23.18 8.37 23.52 8.11L23.52 8.11Q24.16 7.63 24.39 7.55L24.39 7.55Q24.85 7.39 25.16 7.39ZM35.56 7.43L35.56 7.43Q35.94 7.43 35.94 7.84L35.94 7.84Q35.94 7.96 35.92 8.09L35.92 8.09L34.90 12.43Q34.89 12.50 34.88 12.58Q34.86 12.65 34.86 12.73L34.86 12.73Q34.86 13.04 35.05 13.14Q35.24 13.25 35.46 13.25L35.46 13.25Q35.78 13.25 36.12 13.14L36.12 13.14Q35.83 13.23 35.61 13.41Q35.39 13.59 35.16 13.77L35.16 13.77Q34.59 14.19 33.97 14.19Q33.36 14.19 33.36 13.62L33.36 13.62Q33.36 13.43 33.43 13.09L33.43 13.09Q31.68 14.22 30.52 14.22L30.52 14.22Q29.41 14.22 29.41 12.87L29.41 12.87Q29.41 12.44 29.54 11.85L29.54 11.85L30.08 9.55Q30.17 9.11 30.17 8.89L30.17 8.89Q30.17 8.32 29.57 8.32L29.57 8.32Q29.33 8.32 29.06 8.42L29.06 8.42Q29.28 8.26 29.53 8.08Q29.78 7.90 30.06 7.74L30.06 7.74Q30.70 7.38 31.19 7.38L31.19 7.38Q31.75 7.38 31.75 7.94L31.75 7.94Q31.75 8.20 31.60 8.81L31.60 8.81Q30.99 11.27 30.94 11.61Q30.89 11.94 30.89 12.21Q30.89 12.48 30.99 12.69Q31.08 12.91 31.26 13.04L31.26 13.04Q31.58 13.29 32.23 13.29L32.23 13.29Q32.67 13.29 33.22 12.92L33.22 12.92Q33.36 12.82 33.51 12.74L33.51 12.74L34.35 9.13Q34.39 8.96 34.39 8.79L34.39 8.79Q34.39 8.35 34.04 8.35L34.04 8.35Q33.88 8.35 33.71 8.42L33.71 8.42Q35.05 7.43 35.56 7.43ZM43.33 4.53L43.33 4.53Q43.33 4.03 42.88 4.03L42.88 4.03Q42.72 4.03 42.57 4.06Q42.42 4.09 42.27 4.13L42.27 4.13Q42.99 3.67 43.71 3.22Q44.42 2.77 45.19 2.41L45.19 2.41L42.92 12.19Q42.84 12.48 42.84 12.72L42.84 12.72Q42.84 13.26 43.50 13.26L43.50 13.26Q43.70 13.26 43.91 13.22L43.91 13.22Q43.70 13.36 43.46 13.54Q43.23 13.71 42.98 13.85L42.98 13.85Q42.39 14.19 41.93 14.19L41.93 14.19Q41.45 14.19 41.32 13.95L41.32 13.95Q41.27 13.84 41.27 13.70L41.27 13.70Q41.27 13.47 41.35 13.18L41.35 13.18Q40.19 13.92 39.68 14.07Q39.17 14.22 38.86 14.22L38.86 14.22Q37.91 14.22 37.39 13.73Q36.88 13.23 36.88 12.28L36.88 12.28Q36.88 11.03 37.72 9.83L37.72 9.83Q38.50 8.73 39.75 8.01L39.75 8.01Q41.02 7.30 42.26 7.30L42.26 7.30Q42.51 7.30 42.72 7.35L42.72 7.35L43.24 5.11Q43.33 4.75 43.33 4.53ZM41.49 12.60L42.28 9.21Q41.91 8.22 40.65 8.22L40.65 8.22Q39.53 8.22 38.92 9.30L38.92 9.30Q38.42 10.20 38.42 11.25L38.42 11.25Q38.42 13.30 40.30 13.30L40.30 13.30Q40.57 13.30 40.88 13.14L40.88 13.14Q41.43 12.85 41.49 12.60L41.49 12.60ZM47.11 4.42L47.11 4.42Q47.11 3.92 46.70 3.92L46.70 3.92Q46.44 3.92 46.07 4.02L46.07 4.02Q47.03 3.38 48.99 2.30L48.99 2.30L47.53 8.57Q48.53 7.84 49.51 7.55L49.51 7.55Q49.86 7.44 50.15 7.44Q50.43 7.44 50.66 7.52Q50.89 7.59 51.06 7.72L51.06 7.72Q51.45 8.04 51.45 8.54L51.45 8.54Q51.45 8.67 51.41 8.83L51.41 8.83L50.61 12.30Q50.53 12.59 50.53 12.86Q50.53 13.13 50.66 13.23Q50.80 13.33 51.01 13.33Q51.21 13.33 51.39 13.27Q51.56 13.21 51.70 13.16L51.70 13.16Q50.63 14.19 49.62 14.19L49.62 14.19Q49.01 14.19 49.01 13.62L49.01 13.62Q49.01 13.39 49.07 13.16Q49.13 12.93 49.18 12.70L49.18 12.70L49.78 10.14Q49.91 9.63 49.91 9.30Q49.91 8.97 49.82 8.80Q49.74 8.63 49.59 8.54L49.59 8.54Q49.34 8.39 48.85 8.39Q48.36 8.39 48.07 8.60Q47.78 8.81 47.58 9.13L47.58 9.13Q47.28 9.63 47.07 10.53L47.07 10.53L46.59 12.59Q46.54 12.83 46.54 12.95L46.54 12.95Q46.54 13.28 46.83 13.28L46.83 13.28Q46.94 13.28 47.27 13.16L47.27 13.16Q46.85 13.83 46.13 14.10L46.13 14.10Q45.89 14.19 45.69 14.19Q45.49 14.19 45.38 14.14Q45.28 14.09 45.23 14L45.23 14Q45.12 13.83 45.12 13.58L45.12 13.58Q45.12 13.22 45.21 12.80L45.21 12.80L47.03 5.00Q47.11 4.67 47.11 4.42ZM53.99 11.90L53.99 11.90Q53.67 12.17 53.67 12.40Q53.67 12.64 53.79 12.77Q53.92 12.90 54.11 12.99Q54.30 13.08 54.54 13.15Q54.78 13.21 55.02 13.24L55.02 13.24Q55.45 13.30 55.86 13.30Q56.28 13.30 56.73 13.19Q57.19 13.08 57.54 12.84L57.54 12.84Q58.32 12.30 58.32 11.28L58.32 11.28Q58.32 10.27 56.94 9.72L56.94 9.72Q56.54 9.56 56.13 9.42Q55.72 9.28 55.32 9.13Q54.93 8.98 54.62 8.78L54.62 8.78Q53.94 8.34 53.94 7.64L53.94 7.64Q53.94 6.79 54.95 5.89L54.95 5.89Q55.82 5.13 57.13 4.58L57.13 4.58Q58.38 4.05 59.18 4.05L59.18 4.05Q59.81 4.05 60.19 4.17Q60.56 4.29 60.66 4.35Q60.75 4.42 60.75 4.50Q60.75 4.59 60.63 4.70Q60.51 4.82 60.33 4.96Q60.14 5.09 59.92 5.24Q59.70 5.38 59.49 5.50L59.49 5.50Q58.97 5.79 58.86 5.83L58.86 5.83Q59.17 5.62 59.17 5.46Q59.17 5.30 58.98 5.22Q58.78 5.13 58.53 5.07L58.53 5.07Q58.11 4.99 57.68 4.99Q57.26 4.99 56.86 5.07Q56.46 5.15 56.16 5.35L56.16 5.35Q55.49 5.79 55.49 6.70L55.49 6.70Q55.49 7.72 56.86 8.22L56.86 8.22Q57.25 8.36 57.66 8.49Q58.06 8.61 58.45 8.75Q58.84 8.89 59.14 9.10L59.14 9.10Q59.83 9.56 59.83 10.22Q59.83 10.89 59.55 11.41Q59.27 11.93 58.80 12.37Q58.34 12.81 57.74 13.16Q57.15 13.51 56.52 13.75L56.52 13.75Q55.21 14.25 54.16 14.25L54.16 14.25Q53.63 14.25 53.17 14.12Q52.71 13.99 52.52 13.89L52.52 13.89Q52.09 13.67 52.09 13.38L52.09 13.38Q52.09 12.80 53.99 11.90ZM62.23 14.22L62.23 14.22Q60.38 14.22 60.38 12.39L60.38 12.39Q60.38 11.14 61.12 9.93L61.12 9.93Q61.83 8.78 62.99 8.05L62.99 8.05Q64.18 7.30 65.43 7.30L65.43 7.30Q65.99 7.30 66.45 7.47Q66.91 7.64 67.14 7.70L67.14 7.70L66.09 12.19Q66.01 12.54 66.01 12.72L66.01 12.72Q66.01 13.26 66.67 13.26L66.67 13.26Q66.88 13.26 67.08 13.22L67.08 13.22Q66.87 13.36 66.64 13.54Q66.40 13.71 66.16 13.85L66.16 13.85Q65.56 14.19 65.11 14.19L65.11 14.19Q64.62 14.19 64.49 13.95L64.49 13.95Q64.44 13.84 64.44 13.70L64.44 13.70Q64.44 13.47 64.52 13.18L64.52 13.18Q64.27 13.34 64.00 13.52Q63.73 13.71 63.44 13.86L63.44 13.86Q62.77 14.22 62.23 14.22ZM61.87 11.71L61.87 11.71Q61.87 13.30 63.49 13.30L63.49 13.30Q63.75 13.30 64.05 13.14L64.05 13.14Q64.60 12.85 64.67 12.60L64.67 12.60L65.45 9.21Q65.26 8.70 64.92 8.46Q64.58 8.22 64.12 8.22Q63.66 8.22 63.36 8.39Q63.05 8.57 62.82 8.85Q62.58 9.14 62.40 9.51Q62.22 9.87 62.10 10.26L62.10 10.26Q61.87 11.04 61.87 11.71ZM70.72 3.41L72.26 2.48Q72.06 3.69 71.91 3.96L71.91 3.96Q71.87 4.05 71.45 4.29Q71.02 4.53 70.85 4.63L70.85 4.63Q70.49 4.83 70.37 4.89L70.37 4.89Q70.59 4.18 70.72 3.41L70.72 3.41ZM69.36 9.32L69.36 9.32Q69.36 8.83 68.91 8.83L68.91 8.83Q68.71 8.83 68.30 8.92L68.30 8.92Q70.36 7.60 71.22 7.21L71.22 7.21L70.10 12.03Q70.06 12.21 70.02 12.39Q69.97 12.58 69.97 12.76L69.97 12.76Q69.97 13.29 70.74 13.29L70.74 13.29Q70.93 13.29 71.18 13.24L71.18 13.24Q70.96 13.39 70.73 13.56Q70.50 13.73 70.25 13.88L70.25 13.88Q69.68 14.21 69.21 14.21L69.21 14.21Q68.65 14.21 68.51 13.91L68.51 13.91Q68.46 13.79 68.46 13.63L68.46 13.63Q68.46 13.38 68.52 13.13L68.52 13.13L69.27 9.88Q69.36 9.53 69.36 9.32Z"></path></g><defs data-v-fde0c5aa=""><!----></defs><g data-v-fde0c5aa="" id="0d225507-0760-4adb-9ff2-bc6a348f41fb" stroke="none" fill="#F56B11" transform="matrix(0.4565867237227127,0,0,0.4565867237227127,37.71706638138644,127.17066381386435)"><path d="M84 5H16C9.9 5 5 9.6 5 15.3V67c0 5.7 4.9 10.3 11 10.3h7.2v15.3c0 .9.6 1.8 1.5 2.2.4.2.7.2 1.1.2.6 0 1.2-.2 1.7-.5l22.7-17.2H84c6.1 0 11-4.6 11-10.3V15.3C95 9.6 90.1 5 84 5zM43.8 55.5l-1.9-6H31.1l-2 6h-6.4l10.4-29.2H40l10.3 29.2h-6.5zm30-1.9c-2.1 1.8-5 2.6-8.7 2.6-3.8 0-6.9-.9-9.1-2.6s-3.3-4.1-3.3-7.2h5.8c.2 1.3.6 2.3 1.1 3 1 1.2 2.7 1.8 5.2 1.8 1.5 0 2.7-.2 3.6-.5 1.7-.6 2.6-1.7 2.6-3.4 0-1-.4-1.7-1.3-2.2-.9-.5-2.2-1-4.1-1.4l-3.2-.7c-3.1-.7-5.2-1.4-6.4-2.2-2-1.3-3-3.5-3-6.3 0-2.6 1-4.8 2.9-6.5 1.9-1.7 4.8-2.6 8.5-2.6 3.1 0 5.8.8 8 2.4 2.2 1.6 3.4 4 3.5 7.1H70c-.1-1.8-.9-3-2.4-3.7-1-.5-2.2-.7-3.6-.7-1.6 0-2.9.3-3.9 1-1 .6-1.4 1.5-1.4 2.7 0 1 .5 1.8 1.4 2.3.6.3 1.9.7 3.9 1.2l5.1 1.2c2.2.5 3.9 1.2 5 2.1 1.7 1.4 2.6 3.4 2.6 6 .2 2.6-.8 4.8-2.9 6.6z"></path><path d="M32.8 44.5h7.5L36.6 33z"></path></g><!----></svg>