<?xml version="1.0" encoding="utf-8" ?>
<svg baseProfile="full" version="1.1" viewBox="0 0 512 512" xmlns="http://www.w3.org/2000/svg" xmlns:ev="http://www.w3.org/2001/xml-events" xmlns:xlink="http://www.w3.org/1999/xlink"><defs /><path d="M 2046,176 L 2045,177 L 2045,178 L 2044,179 L 2042,179 L 2042,180 L 2040,182 L 2039,182 L 2039,183 L 2037,185 L 2036,185 L 2030,191 L 2029,191 L 2022,198 L 2021,198 L 2020,199 L 2020,200 L 2019,201 L 2018,201 L 2015,204 L 2014,204 L 2014,205 L 2012,207 L 2011,207 L 2004,214 L 2003,214 L 1997,220 L 1996,220 L 1995,221 L 1995,222 L 1994,223 L 1993,223 L 1990,226 L 1989,226 L 1989,227 L 1987,229 L 1986,229 L 1986,230 L 1985,231 L 1984,231 L 1978,237 L 1977,237 L 1970,244 L 1969,244 L 1965,248 L 1964,248 L 1964,249 L 1962,251 L 1961,251 L 1961,252 L 1959,254 L 1958,254 L 1952,260 L 1951,260 L 1945,266 L 1944,266 L 1943,267 L 1943,268 L 1942,269 L 1941,269 L 1938,272 L 1937,272 L 1937,273 L 1935,275 L 1934,275 L 1931,278 L 1930,278 L 1930,279 L 1928,281 L 1927,281 L 1927,282 L 1926,283 L 1925,283 L 1920,288 L 1919,288 L 1918,289 L 1918,290 L 1917,291 L 1916,291 L 1915,292 L 1915,293 L 1914,294 L 1912,294 L 1912,295 L 1910,297 L 1909,297 L 1909,298 L 1907,300 L 1906,300 L 1900,306 L 1899,306 L 1893,312 L 1892,312 L 1885,319 L 1884,319 L 1884,320 L 1882,322 L 1881,322 L 1874,329 L 1873,329 L 1868,334 L 1867,334 L 1861,340 L 1860,340 L 1859,341 L 1859,342 L 1858,343 L 1857,343 L 1856,344 L 1856,345 L 1855,346 L 1853,346 L 1853,347 L 1851,349 L 1812,349 L 1811,350 L 1372,350 L 1372,352 L 1371,353 L 1371,355 L 1370,356 L 1370,362 L 1369,363 L 1369,365 L 1368,366 L 1368,368 L 1367,369 L 1367,375 L 1366,376 L 1366,378 L 1365,379 L 1365,382 L 1364,383 L 1364,388 L 1363,389 L 1363,392 L 1362,393 L 1362,395 L 1361,396 L 1361,401 L 1360,402 L 1360,404 L 1359,405 L 1359,407 L 1358,408 L 1358,414 L 1357,415 L 1357,418 L 1356,419 L 1356,421 L 1355,422 L 1355,428 L 1354,429 L 1354,431 L 1353,432 L 1353,434 L 1352,435 L 1352,441 L 1351,442 L 1351,444 L 1350,445 L 1350,447 L 1349,448 L 1349,454 L 1348,455 L 1348,457 L 1347,458 L 1347,460 L 1346,461 L 1346,467 L 1345,468 L 1345,470 L 1344,471 L 1344,473 L 1343,474 L 1343,480 L 1342,481 L 1342,484 L 1341,485 L 1341,487 L 1340,488 L 1340,493 L 1339,494 L 1339,497 L 1338,498 L 1338,500 L 1337,501 L 1337,503 L 1336,504 L 1336,509 L 1335,510 L 1335,513 L 1334,514 L 1334,516 L 1333,517 L 1333,523 L 1332,524 L 1332,526 L 1331,527 L 1331,529 L 1330,530 L 1330,536 L 1329,537 L 1329,540 L 1328,541 L 1328,543 L 1327,544 L 1327,549 L 1326,550 L 1326,553 L 1325,554 L 1325,556 L 1324,557 L 1324,562 L 1323,563 L 1323,565 L 1322,566 L 1322,568 L 2047,568 L 2047,176 Z M 0,130 L 0,568 L 107,568 L 107,566 L 108,565 L 108,562 L 109,561 L 109,559 L 110,558 L 110,552 L 111,551 L 111,549 L 112,548 L 112,546 L 113,545 L 113,540 L 114,539 L 114,535 L 115,534 L 115,532 L 116,531 L 116,529 L 117,528 L 117,523 L 118,522 L 118,520 L 119,519 L 119,516 L 120,515 L 120,510 L 121,509 L 121,506 L 122,505 L 122,503 L 123,502 L 123,496 L 124,495 L 124,493 L 125,492 L 125,490 L 126,489 L 126,483 L 127,482 L 127,480 L 128,479 L 128,477 L 129,476 L 129,470 L 130,469 L 130,467 L 131,466 L 131,464 L 132,463 L 132,457 L 133,456 L 133,454 L 134,453 L 134,451 L 135,450 L 135,444 L 136,443 L 136,441 L 137,440 L 137,437 L 138,436 L 138,431 L 139,430 L 139,427 L 140,426 L 140,424 L 141,423 L 141,418 L 142,417 L 142,415 L 143,414 L 143,411 L 144,410 L 144,405 L 145,404 L 145,401 L 146,400 L 146,398 L 147,397 L 147,395 L 148,394 L 148,388 L 149,387 L 149,385 L 150,384 L 150,381 L 151,380 L 151,375 L 152,374 L 152,371 L 153,370 L 153,368 L 154,367 L 154,362 L 155,361 L 155,359 L 156,358 L 156,356 L 157,355 L 157,349 L 158,348 L 158,346 L 159,345 L 159,342 L 160,341 L 160,336 L 161,335 L 161,332 L 162,331 L 162,329 L 163,328 L 163,322 L 164,321 L 164,319 L 165,318 L 165,316 L 166,315 L 166,310 L 167,309 L 167,306 L 168,305 L 168,303 L 169,302 L 169,297 L 170,296 L 170,293 L 171,292 L 171,290 L 172,289 L 172,283 L 173,282 L 173,280 L 174,279 L 174,276 L 175,275 L 175,270 L 176,269 L 176,266 L 177,265 L 177,263 L 178,262 L 178,257 L 179,256 L 179,254 L 180,253 L 180,251 L 181,250 L 181,247 L 182,246 L 182,241 L 183,240 L 183,237 L 184,236 L 184,234 L 185,233 L 185,227 L 186,226 L 186,224 L 187,223 L 187,221 L 188,220 L 188,214 L 189,213 L 189,211 L 190,210 L 190,207 L 191,206 L 191,201 L 192,200 L 192,198 L 193,197 L 193,195 L 194,194 L 194,188 L 195,187 L 195,185 L 196,184 L 196,182 L 197,181 L 197,175 L 198,174 L 198,172 L 199,171 L 199,168 L 200,167 L 200,162 L 201,161 L 201,158 L 202,157 L 202,155 L 203,154 L 203,149 L 204,148 L 204,145 L 205,144 L 205,142 L 206,141 L 206,136 L 207,135 L 207,132 L 208,131 L 208,130 Z M 1830,3 L 1830,5 L 1829,6 L 1829,8 L 1828,9 L 1828,15 L 1827,16 L 1827,18 L 1826,19 L 1826,21 L 1825,22 L 1825,28 L 1824,29 L 1824,31 L 1823,32 L 1823,34 L 1822,35 L 1822,41 L 1821,42 L 1821,44 L 1820,45 L 1820,47 L 1819,48 L 1819,54 L 1818,55 L 1818,57 L 1817,58 L 1817,60 L 1816,61 L 1816,67 L 1815,68 L 1815,70 L 1814,71 L 1814,73 L 1813,74 L 1813,79 L 1812,80 L 1812,82 L 1811,83 L 1811,86 L 1810,87 L 1810,92 L 1809,93 L 1809,95 L 1808,96 L 1808,98 L 1807,99 L 1807,105 L 1806,106 L 1806,108 L 1805,109 L 1805,112 L 1804,113 L 1804,118 L 1803,119 L 1803,121 L 1802,122 L 1802,125 L 1801,126 L 1801,128 L 1799,130 L 1726,130 L 1725,131 L 1665,131 L 1664,132 L 1605,132 L 1604,133 L 1499,133 L 1498,134 L 1492,134 L 1491,135 L 1488,135 L 1487,136 L 1482,136 L 1481,137 L 1479,137 L 1478,138 L 1477,138 L 1476,139 L 1473,139 L 1472,140 L 1471,140 L 1470,141 L 1469,141 L 1468,142 L 1466,142 L 1464,144 L 1463,144 L 1462,145 L 1460,145 L 1460,146 L 1459,147 L 1458,147 L 1457,148 L 1456,148 L 1455,149 L 1454,149 L 1454,150 L 1453,151 L 1452,151 L 1448,155 L 1447,155 L 1438,164 L 1438,165 L 1436,167 L 1435,167 L 1435,169 L 1434,170 L 1433,170 L 1433,171 L 1432,172 L 1432,173 L 1429,176 L 1429,178 L 1427,180 L 1427,181 L 1426,182 L 1426,184 L 1425,185 L 1425,186 L 1424,187 L 1424,188 L 1423,189 L 1423,191 L 1421,193 L 1421,194 L 1420,195 L 1420,197 L 1418,199 L 1418,200 L 1417,201 L 1417,203 L 1416,204 L 1416,205 L 1414,207 L 1414,209 L 1413,210 L 1413,211 L 1411,213 L 1411,215 L 1410,216 L 1410,218 L 1409,219 L 1779,219 L 1780,220 L 1780,222 L 1779,223 L 1779,228 L 1778,229 L 1778,232 L 1777,233 L 1777,235 L 1776,236 L 1776,241 L 1775,242 L 1775,245 L 1774,246 L 1774,248 L 1773,249 L 1773,254 L 1772,255 L 1772,258 L 1771,259 L 1771,261 L 1770,262 L 1770,267 L 1769,268 L 1769,271 L 1768,272 L 1768,274 L 1767,275 L 1767,277 L 1766,278 L 1766,283 L 1765,284 L 1765,287 L 1764,288 L 1764,290 L 1763,291 L 1763,296 L 1762,297 L 1762,299 L 1761,300 L 1761,302 L 1760,303 L 1760,308 L 1759,309 L 1759,312 L 1758,313 L 1758,315 L 1757,316 L 1757,321 L 1756,322 L 1756,325 L 1755,326 L 1755,328 L 1754,329 L 1754,334 L 1753,335 L 1753,338 L 1752,339 L 1752,341 L 1751,342 L 1751,345 L 1757,339 L 1758,339 L 1759,338 L 1759,337 L 1760,336 L 1761,336 L 1767,330 L 1768,330 L 1769,329 L 1769,328 L 1770,327 L 1771,327 L 1774,324 L 1775,324 L 1775,323 L 1777,321 L 1778,321 L 1778,320 L 1779,319 L 1780,319 L 1787,312 L 1788,312 L 1795,305 L 1796,305 L 1796,304 L 1798,302 L 1799,302 L 1800,301 L 1800,300 L 1801,299 L 1803,299 L 1803,298 L 1805,296 L 1806,296 L 1806,295 L 1808,293 L 1809,293 L 1816,286 L 1817,286 L 1826,277 L 1827,277 L 1827,276 L 1829,274 L 1830,274 L 1833,271 L 1834,271 L 1834,270 L 1836,268 L 1837,268 L 1837,267 L 1839,265 L 1840,265 L 1846,259 L 1847,259 L 1854,252 L 1855,252 L 1855,251 L 1856,250 L 1857,250 L 1858,249 L 1858,248 L 1859,247 L 1860,247 L 1864,243 L 1865,243 L 1865,242 L 1867,240 L 1868,240 L 1876,232 L 1877,232 L 1884,225 L 1885,225 L 1886,224 L 1886,223 L 1887,222 L 1888,222 L 1891,219 L 1892,219 L 1892,218 L 1894,216 L 1895,216 L 1895,215 L 1897,213 L 1898,213 L 1905,206 L 1906,206 L 1913,199 L 1914,199 L 1914,198 L 1915,197 L 1916,197 L 1917,196 L 1917,195 L 1918,194 L 1919,194 L 1922,191 L 1923,191 L 1923,190 L 1925,188 L 1926,188 L 1927,187 L 1927,186 L 1928,185 L 1929,185 L 1932,182 L 1933,182 L 1933,181 L 1935,179 L 1936,179 L 1942,173 L 1940,171 L 1940,170 L 1939,169 L 1939,168 L 1936,165 L 1936,164 L 1934,162 L 1934,161 L 1933,160 L 1933,159 L 1930,156 L 1930,155 L 1929,154 L 1929,153 L 1926,150 L 1926,148 L 1925,148 L 1924,147 L 1924,146 L 1923,145 L 1923,144 L 1920,141 L 1920,139 L 1917,136 L 1917,135 L 1916,134 L 1916,133 L 1915,133 L 1914,132 L 1914,130 L 1911,127 L 1911,126 L 1910,125 L 1910,124 L 1908,122 L 1908,121 L 1906,119 L 1906,118 L 1905,117 L 1905,116 L 1902,113 L 1902,111 L 1901,111 L 1900,110 L 1900,109 L 1899,108 L 1899,107 L 1896,104 L 1896,103 L 1894,101 L 1894,100 L 1892,98 L 1892,96 L 1891,96 L 1890,95 L 1890,94 L 1889,93 L 1889,92 L 1886,89 L 1886,87 L 1883,84 L 1883,83 L 1881,81 L 1881,80 L 1880,79 L 1880,78 L 1877,75 L 1877,74 L 1876,73 L 1876,72 L 1874,70 L 1874,69 L 1871,66 L 1871,65 L 1870,64 L 1870,63 L 1868,61 L 1868,59 L 1867,59 L 1866,58 L 1866,57 L 1865,56 L 1865,55 L 1862,52 L 1862,51 L 1861,50 L 1861,49 L 1858,46 L 1858,45 L 1857,44 L 1857,43 L 1855,41 L 1855,40 L 1853,38 L 1853,37 L 1852,36 L 1852,35 L 1849,32 L 1849,31 L 1847,29 L 1847,28 L 1846,27 L 1846,26 L 1843,23 L 1843,22 L 1842,21 L 1842,20 L 1840,18 L 1840,17 L 1839,16 L 1839,15 L 1838,15 L 1837,14 L 1837,12 L 1834,9 L 1834,8 L 1833,7 L 1833,6 L 1832,6 L 1831,5 L 1831,4 Z M 1936,0 L 1936,1 L 1937,2 L 1937,3 L 1940,6 L 1940,8 L 1941,8 L 1942,9 L 1942,10 L 1943,11 L 1943,12 L 1945,14 L 1945,15 L 1946,16 L 1946,17 L 1949,20 L 1949,21 L 1950,22 L 1950,23 L 1952,25 L 1952,26 L 1955,29 L 1955,30 L 1956,31 L 1956,32 L 1958,34 L 1958,35 L 1961,38 L 1961,39 L 1962,40 L 1962,41 L 1964,43 L 1964,45 L 1965,45 L 1966,46 L 1966,47 L 1968,49 L 1968,50 L 1969,51 L 1969,52 L 1971,54 L 1971,55 L 1974,58 L 1974,60 L 1977,63 L 1977,64 L 1979,66 L 1979,67 L 1980,68 L 1980,69 L 1983,72 L 1983,73 L 1985,75 L 1985,76 L 1986,77 L 1986,78 L 1989,81 L 1989,83 L 1992,86 L 1992,87 L 1993,88 L 1993,89 L 1994,89 L 1995,90 L 1995,92 L 1998,95 L 1998,96 L 1999,97 L 1999,98 L 2002,101 L 2002,102 L 2003,103 L 2003,104 L 2005,106 L 2005,107 L 2008,110 L 2008,111 L 2009,112 L 2009,113 L 2011,115 L 2011,116 L 2013,118 L 2013,119 L 2014,120 L 2014,121 L 2017,124 L 2017,126 L 2018,126 L 2019,127 L 2019,128 L 2020,129 L 2020,130 L 2023,133 L 2023,135 L 2026,138 L 2026,139 L 2027,140 L 2027,141 L 2028,141 L 2029,142 L 2029,144 L 2032,147 L 2032,148 L 2033,149 L 2033,150 L 2036,153 L 2036,154 L 2037,155 L 2037,156 L 2039,158 L 2039,159 L 2042,162 L 2042,163 L 2043,164 L 2043,165 L 2045,167 L 2045,168 L 2047,170 L 2047,0 Z M 1258,0 L 1258,1 L 1257,2 L 1257,5 L 1256,6 L 1256,11 L 1255,12 L 1255,14 L 1254,15 L 1254,18 L 1253,19 L 1253,24 L 1252,25 L 1252,27 L 1251,28 L 1251,30 L 1250,31 L 1250,37 L 1249,38 L 1249,40 L 1248,41 L 1248,43 L 1247,44 L 1247,50 L 1246,51 L 1246,53 L 1245,54 L 1245,57 L 1244,58 L 1244,63 L 1243,64 L 1243,67 L 1242,68 L 1242,70 L 1241,71 L 1241,75 L 1240,76 L 1240,79 L 1239,80 L 1239,82 L 1238,83 L 1238,86 L 1237,87 L 1237,92 L 1236,93 L 1236,95 L 1235,96 L 1235,99 L 1234,100 L 1234,105 L 1233,106 L 1233,108 L 1232,109 L 1232,112 L 1231,113 L 1231,118 L 1230,119 L 1230,122 L 1229,123 L 1229,125 L 1228,126 L 1228,132 L 1227,133 L 1227,135 L 1226,136 L 1226,138 L 1225,139 L 1225,144 L 1224,145 L 1224,147 L 1223,148 L 1223,151 L 1222,152 L 1222,157 L 1221,158 L 1221,160 L 1220,161 L 1220,164 L 1219,165 L 1219,170 L 1218,171 L 1218,173 L 1217,174 L 1217,177 L 1216,178 L 1216,183 L 1215,184 L 1215,187 L 1214,188 L 1214,190 L 1213,191 L 1213,196 L 1212,197 L 1212,200 L 1211,201 L 1211,203 L 1210,204 L 1210,209 L 1209,210 L 1209,212 L 1208,213 L 1208,216 L 1207,217 L 1207,221 L 1206,222 L 1206,225 L 1205,226 L 1205,229 L 1204,230 L 1204,232 L 1203,233 L 1203,239 L 1202,240 L 1202,242 L 1201,243 L 1201,245 L 1200,246 L 1200,252 L 1199,253 L 1199,255 L 1198,256 L 1198,258 L 1197,259 L 1197,265 L 1196,266 L 1196,268 L 1195,269 L 1195,271 L 1194,272 L 1194,277 L 1193,278 L 1193,280 L 1192,281 L 1192,284 L 1191,285 L 1191,290 L 1190,291 L 1190,294 L 1189,295 L 1189,297 L 1188,298 L 1188,304 L 1187,305 L 1187,307 L 1186,308 L 1186,310 L 1185,311 L 1185,317 L 1184,318 L 1184,320 L 1183,321 L 1183,323 L 1182,324 L 1182,329 L 1181,330 L 1181,333 L 1180,334 L 1180,336 L 1179,337 L 1179,342 L 1178,343 L 1178,346 L 1177,347 L 1177,349 L 1176,350 L 1176,355 L 1175,356 L 1175,359 L 1174,360 L 1174,362 L 1173,363 L 1173,365 L 1172,366 L 1172,372 L 1171,373 L 1171,375 L 1170,376 L 1170,378 L 1169,379 L 1169,383 L 1168,384 L 1168,386 L 1167,387 L 1167,389 L 1166,390 L 1166,394 L 1165,395 L 1165,396 L 1164,397 L 1164,398 L 1163,399 L 1163,403 L 1162,404 L 1162,405 L 1161,406 L 1161,407 L 1160,408 L 1160,411 L 1159,412 L 1159,413 L 1158,414 L 1158,415 L 1157,416 L 1157,419 L 1155,421 L 1155,423 L 1154,424 L 1154,426 L 1152,428 L 1152,429 L 1151,430 L 1151,432 L 1150,433 L 1150,434 L 1148,436 L 1148,438 L 1147,439 L 1147,440 L 1145,442 L 1145,444 L 1143,446 L 1143,447 L 1142,448 L 1142,449 L 1141,450 L 1141,451 L 1139,453 L 1139,454 L 1138,455 L 1138,456 L 1135,459 L 1135,461 L 1132,464 L 1132,466 L 1131,467 L 1130,467 L 1130,468 L 1128,470 L 1128,471 L 1126,473 L 1126,474 L 1123,477 L 1123,478 L 1122,479 L 1121,479 L 1121,480 L 1120,481 L 1120,482 L 1119,483 L 1118,483 L 1118,484 L 1114,488 L 1114,489 L 1105,498 L 1104,498 L 1104,499 L 1102,501 L 1101,501 L 1101,502 L 1099,504 L 1098,504 L 1098,505 L 1096,507 L 1095,507 L 1095,508 L 1093,510 L 1092,510 L 1088,514 L 1087,514 L 1081,520 L 1080,520 L 1077,523 L 1076,523 L 1074,525 L 1073,525 L 1071,527 L 1070,527 L 1070,528 L 1069,529 L 1067,529 L 1064,532 L 1063,532 L 1062,533 L 1061,533 L 1059,535 L 1058,535 L 1057,536 L 1056,536 L 1054,538 L 1052,538 L 1049,541 L 1047,541 L 1045,543 L 1044,543 L 1043,544 L 1041,544 L 1040,545 L 1039,545 L 1037,547 L 1036,547 L 1035,548 L 1033,548 L 1032,549 L 1031,549 L 1030,550 L 1029,550 L 1028,551 L 1026,551 L 1025,552 L 1024,552 L 1023,553 L 1022,553 L 1021,554 L 1018,554 L 1017,555 L 1016,555 L 1015,556 L 1014,556 L 1013,557 L 1009,557 L 1008,558 L 1007,558 L 1006,559 L 1005,559 L 1004,560 L 999,560 L 998,561 L 996,561 L 995,562 L 993,562 L 992,563 L 987,563 L 986,564 L 984,564 L 983,565 L 980,565 L 979,566 L 971,566 L 970,567 L 966,567 L 965,568 L 961,568 L 1184,568 L 1184,566 L 1185,565 L 1185,563 L 1186,562 L 1186,559 L 1187,558 L 1187,553 L 1188,552 L 1188,549 L 1189,548 L 1189,546 L 1190,545 L 1190,539 L 1191,538 L 1191,536 L 1192,535 L 1192,533 L 1193,532 L 1193,526 L 1194,525 L 1194,523 L 1195,522 L 1195,520 L 1196,519 L 1196,514 L 1197,513 L 1197,510 L 1198,509 L 1198,507 L 1199,506 L 1199,500 L 1200,499 L 1200,497 L 1201,496 L 1201,494 L 1202,493 L 1202,487 L 1203,486 L 1203,483 L 1204,482 L 1204,480 L 1205,479 L 1205,477 L 1206,476 L 1206,470 L 1207,469 L 1207,467 L 1208,466 L 1208,464 L 1209,463 L 1209,458 L 1210,457 L 1210,454 L 1211,453 L 1211,451 L 1212,450 L 1212,444 L 1213,443 L 1213,441 L 1214,440 L 1214,438 L 1215,437 L 1215,431 L 1216,430 L 1216,428 L 1217,427 L 1217,424 L 1218,423 L 1218,418 L 1219,417 L 1219,415 L 1220,414 L 1220,411 L 1221,410 L 1221,405 L 1222,404 L 1222,402 L 1223,401 L 1223,398 L 1224,397 L 1224,392 L 1225,391 L 1225,388 L 1226,387 L 1226,385 L 1227,384 L 1227,378 L 1228,377 L 1228,375 L 1229,374 L 1229,372 L 1230,371 L 1230,365 L 1231,364 L 1231,362 L 1232,361 L 1232,359 L 1233,358 L 1233,353 L 1234,352 L 1234,349 L 1235,348 L 1235,346 L 1236,345 L 1236,340 L 1237,339 L 1237,336 L 1238,335 L 1238,332 L 1239,331 L 1239,329 L 1240,328 L 1240,322 L 1241,321 L 1241,319 L 1242,318 L 1242,316 L 1243,315 L 1243,310 L 1244,309 L 1244,306 L 1245,305 L 1245,303 L 1246,302 L 1246,297 L 1247,296 L 1247,293 L 1248,292 L 1248,290 L 1249,289 L 1249,283 L 1250,282 L 1250,280 L 1251,279 L 1251,277 L 1252,276 L 1252,270 L 1253,269 L 1253,267 L 1254,266 L 1254,263 L 1255,262 L 1255,257 L 1256,256 L 1256,254 L 1257,253 L 1257,251 L 1258,250 L 1258,244 L 1259,243 L 1259,241 L 1260,240 L 1260,237 L 1261,236 L 1261,231 L 1262,230 L 1262,227 L 1263,226 L 1263,224 L 1264,223 L 1264,218 L 1265,217 L 1265,214 L 1266,213 L 1266,211 L 1267,210 L 1267,205 L 1268,204 L 1268,201 L 1269,200 L 1269,198 L 1270,197 L 1270,194 L 1271,193 L 1271,189 L 1272,188 L 1272,186 L 1273,185 L 1273,184 L 1274,183 L 1274,179 L 1275,178 L 1275,176 L 1276,175 L 1276,174 L 1277,173 L 1277,170 L 1278,169 L 1278,167 L 1279,166 L 1279,165 L 1280,164 L 1280,161 L 1281,160 L 1281,159 L 1283,157 L 1283,153 L 1285,151 L 1285,150 L 1286,149 L 1286,146 L 1288,144 L 1288,142 L 1289,141 L 1289,140 L 1290,139 L 1290,138 L 1291,137 L 1291,136 L 1292,135 L 1292,133 L 1294,131 L 1294,130 L 1295,129 L 1295,127 L 1297,125 L 1297,124 L 1298,123 L 1298,122 L 1300,120 L 1300,119 L 1301,118 L 1301,117 L 1302,116 L 1302,115 L 1305,112 L 1305,110 L 1308,107 L 1308,105 L 1309,104 L 1310,104 L 1310,103 L 1311,102 L 1311,101 L 1314,98 L 1314,97 L 1317,94 L 1317,93 L 1320,90 L 1320,89 L 1323,86 L 1323,85 L 1325,83 L 1326,83 L 1326,81 L 1327,80 L 1328,80 L 1329,79 L 1329,78 L 1331,76 L 1332,76 L 1332,75 L 1346,61 L 1347,61 L 1348,60 L 1348,59 L 1349,58 L 1350,58 L 1351,57 L 1351,56 L 1352,55 L 1354,55 L 1354,54 L 1356,52 L 1357,52 L 1360,49 L 1361,49 L 1365,45 L 1366,45 L 1368,43 L 1369,43 L 1371,41 L 1372,41 L 1374,39 L 1375,39 L 1378,36 L 1380,36 L 1383,33 L 1385,33 L 1387,31 L 1388,31 L 1389,30 L 1390,30 L 1392,28 L 1393,28 L 1394,27 L 1396,27 L 1398,25 L 1399,25 L 1400,24 L 1402,24 L 1403,23 L 1404,23 L 1406,21 L 1409,21 L 1411,19 L 1412,19 L 1413,18 L 1416,18 L 1417,17 L 1418,17 L 1420,15 L 1422,15 L 1423,14 L 1425,14 L 1426,13 L 1428,13 L 1429,12 L 1431,12 L 1432,11 L 1435,11 L 1436,10 L 1438,10 L 1439,9 L 1440,9 L 1441,8 L 1445,8 L 1446,7 L 1448,7 L 1449,6 L 1451,6 L 1452,5 L 1458,5 L 1459,4 L 1462,4 L 1463,3 L 1466,3 L 1467,2 L 1475,2 L 1476,1 L 1481,1 L 1482,0 L 1488,0 Z M 783,0 L 783,1 L 782,2 L 782,4 L 781,5 L 781,8 L 780,9 L 780,13 L 779,14 L 779,17 L 778,18 L 778,21 L 777,22 L 777,25 L 776,26 L 776,30 L 775,31 L 775,33 L 774,34 L 774,37 L 773,38 L 773,43 L 772,44 L 772,46 L 771,47 L 771,50 L 770,51 L 770,56 L 769,57 L 769,60 L 768,61 L 768,63 L 767,64 L 767,70 L 766,71 L 766,73 L 765,74 L 765,76 L 764,77 L 764,82 L 763,83 L 763,86 L 762,87 L 762,89 L 761,90 L 761,95 L 760,96 L 760,99 L 759,100 L 759,102 L 758,103 L 758,109 L 757,110 L 757,112 L 756,113 L 756,115 L 755,116 L 755,122 L 754,123 L 754,125 L 753,126 L 753,129 L 752,130 L 752,135 L 751,136 L 751,138 L 750,139 L 750,141 L 749,142 L 749,147 L 748,148 L 748,151 L 747,152 L 747,154 L 746,155 L 746,160 L 745,161 L 745,164 L 744,165 L 744,167 L 743,168 L 743,171 L 742,172 L 742,177 L 741,178 L 741,181 L 740,182 L 740,184 L 739,185 L 739,190 L 738,191 L 738,194 L 737,195 L 737,197 L 736,198 L 736,203 L 735,204 L 735,206 L 734,207 L 734,210 L 733,211 L 733,216 L 732,217 L 732,220 L 731,221 L 731,223 L 730,224 L 730,230 L 729,231 L 729,233 L 728,234 L 728,236 L 727,237 L 727,243 L 726,244 L 726,246 L 725,247 L 725,249 L 724,250 L 724,256 L 723,257 L 723,259 L 722,260 L 722,262 L 721,263 L 721,268 L 720,269 L 720,272 L 719,273 L 719,275 L 718,276 L 718,282 L 717,283 L 717,285 L 716,286 L 716,288 L 715,289 L 715,295 L 714,296 L 714,298 L 713,299 L 713,302 L 712,303 L 712,307 L 711,308 L 711,311 L 710,312 L 710,314 L 709,315 L 709,318 L 708,319 L 708,324 L 707,325 L 707,327 L 706,328 L 706,331 L 705,332 L 705,337 L 704,338 L 704,341 L 703,342 L 703,344 L 702,345 L 702,350 L 701,351 L 701,354 L 700,355 L 700,357 L 699,358 L 699,364 L 698,365 L 698,380 L 699,381 L 699,387 L 700,388 L 700,389 L 701,390 L 701,392 L 702,393 L 702,395 L 703,396 L 703,397 L 705,399 L 705,401 L 707,403 L 707,404 L 708,405 L 708,406 L 711,409 L 711,410 L 714,413 L 714,414 L 719,419 L 720,419 L 722,421 L 723,421 L 724,422 L 724,423 L 726,423 L 727,424 L 727,425 L 728,425 L 729,426 L 730,426 L 731,427 L 732,427 L 734,429 L 736,429 L 737,430 L 738,430 L 740,432 L 743,432 L 744,433 L 745,433 L 746,434 L 748,434 L 749,435 L 752,435 L 753,436 L 755,436 L 756,437 L 759,437 L 760,438 L 770,438 L 771,439 L 928,439 L 929,438 L 940,438 L 941,437 L 943,437 L 944,436 L 947,436 L 948,435 L 952,435 L 953,434 L 955,434 L 956,433 L 958,433 L 959,432 L 961,432 L 962,431 L 964,431 L 965,430 L 966,430 L 967,429 L 969,429 L 970,428 L 971,428 L 972,427 L 973,427 L 974,426 L 976,426 L 978,424 L 979,424 L 980,423 L 982,423 L 985,420 L 987,420 L 990,417 L 992,417 L 992,416 L 993,415 L 994,415 L 995,414 L 996,414 L 1000,410 L 1001,410 L 1007,404 L 1008,404 L 1008,403 L 1010,401 L 1011,401 L 1011,400 L 1013,398 L 1014,398 L 1014,397 L 1016,395 L 1017,395 L 1017,393 L 1018,392 L 1019,392 L 1020,391 L 1020,390 L 1023,387 L 1023,386 L 1026,383 L 1026,382 L 1028,380 L 1028,379 L 1029,378 L 1029,377 L 1030,376 L 1030,375 L 1032,373 L 1032,371 L 1033,370 L 1033,369 L 1034,368 L 1034,367 L 1035,366 L 1035,363 L 1036,362 L 1036,360 L 1037,359 L 1037,357 L 1038,356 L 1038,352 L 1039,351 L 1039,348 L 1040,347 L 1040,344 L 1041,343 L 1041,341 L 1042,340 L 1042,334 L 1043,333 L 1043,331 L 1044,330 L 1044,328 L 1045,327 L 1045,322 L 1046,321 L 1046,319 L 1047,318 L 1047,315 L 1048,314 L 1048,309 L 1049,308 L 1049,305 L 1050,304 L 1050,302 L 1051,301 L 1051,295 L 1052,294 L 1052,292 L 1053,291 L 1053,289 L 1054,288 L 1054,282 L 1055,281 L 1055,279 L 1056,278 L 1056,275 L 1057,274 L 1057,269 L 1058,268 L 1058,266 L 1059,265 L 1059,263 L 1060,262 L 1060,256 L 1061,255 L 1061,253 L 1062,252 L 1062,250 L 1063,249 L 1063,243 L 1064,242 L 1064,240 L 1065,239 L 1065,237 L 1066,236 L 1066,230 L 1067,229 L 1067,227 L 1068,226 L 1068,223 L 1069,222 L 1069,217 L 1070,216 L 1070,214 L 1071,213 L 1071,210 L 1072,209 L 1072,207 L 1073,206 L 1073,201 L 1074,200 L 1074,198 L 1075,197 L 1075,194 L 1076,193 L 1076,188 L 1077,187 L 1077,184 L 1078,183 L 1078,181 L 1079,180 L 1079,174 L 1080,173 L 1080,171 L 1081,170 L 1081,168 L 1082,167 L 1082,161 L 1083,160 L 1083,158 L 1084,157 L 1084,155 L 1085,154 L 1085,149 L 1086,148 L 1086,145 L 1087,144 L 1087,142 L 1088,141 L 1088,136 L 1089,135 L 1089,132 L 1090,131 L 1090,129 L 1091,128 L 1091,122 L 1092,121 L 1092,119 L 1093,118 L 1093,116 L 1094,115 L 1094,109 L 1095,108 L 1095,106 L 1096,105 L 1096,102 L 1097,101 L 1097,96 L 1098,95 L 1098,93 L 1099,92 L 1099,90 L 1100,89 L 1100,83 L 1101,82 L 1101,80 L 1102,79 L 1102,77 L 1103,76 L 1103,71 L 1104,70 L 1104,67 L 1105,66 L 1105,63 L 1106,62 L 1106,60 L 1107,59 L 1107,53 L 1108,52 L 1108,50 L 1109,49 L 1109,47 L 1110,46 L 1110,40 L 1111,39 L 1111,37 L 1112,36 L 1112,34 L 1113,33 L 1113,28 L 1114,27 L 1114,25 L 1115,24 L 1115,21 L 1116,20 L 1116,15 L 1117,14 L 1117,11 L 1118,10 L 1118,8 L 1119,7 L 1119,1 L 1120,0 Z M 587,0 L 586,1 L 586,3 L 585,4 L 585,10 L 584,11 L 584,13 L 583,14 L 583,16 L 582,17 L 582,22 L 581,23 L 581,26 L 580,27 L 580,29 L 579,30 L 579,34 L 578,35 L 578,39 L 577,40 L 577,42 L 576,43 L 576,45 L 575,46 L 575,51 L 574,52 L 574,55 L 573,56 L 573,58 L 572,59 L 572,64 L 571,65 L 571,67 L 570,68 L 570,71 L 569,72 L 569,77 L 568,78 L 568,80 L 567,81 L 567,84 L 566,85 L 566,90 L 565,91 L 565,93 L 564,94 L 564,97 L 563,98 L 563,103 L 562,104 L 562,107 L 561,108 L 561,110 L 560,111 L 560,116 L 559,117 L 559,119 L 558,120 L 558,123 L 557,124 L 557,129 L 556,130 L 346,130 L 346,132 L 345,133 L 345,135 L 344,136 L 344,138 L 343,139 L 343,145 L 342,146 L 342,148 L 341,149 L 341,152 L 340,153 L 340,158 L 339,159 L 339,162 L 338,163 L 338,165 L 337,166 L 337,172 L 336,173 L 336,175 L 335,176 L 335,178 L 334,179 L 334,184 L 333,185 L 333,188 L 332,189 L 332,191 L 331,192 L 331,197 L 330,198 L 330,201 L 329,202 L 329,204 L 328,205 L 328,211 L 327,212 L 327,214 L 326,215 L 326,217 L 325,218 L 325,224 L 324,225 L 324,227 L 323,228 L 323,231 L 322,232 L 322,237 L 321,238 L 321,240 L 320,241 L 320,243 L 319,244 L 319,250 L 318,251 L 318,253 L 317,254 L 317,257 L 316,258 L 316,263 L 315,264 L 315,267 L 314,268 L 314,270 L 313,271 L 313,273 L 312,274 L 312,280 L 311,281 L 311,283 L 310,284 L 310,287 L 309,288 L 309,293 L 308,294 L 308,296 L 307,297 L 307,299 L 306,300 L 306,306 L 305,307 L 305,309 L 304,310 L 304,312 L 303,313 L 303,319 L 302,320 L 302,322 L 301,323 L 301,326 L 300,327 L 300,332 L 299,333 L 299,336 L 298,337 L 298,339 L 297,340 L 297,345 L 296,346 L 296,349 L 295,350 L 295,352 L 294,353 L 294,358 L 293,359 L 293,362 L 292,363 L 292,365 L 291,366 L 291,372 L 290,373 L 290,375 L 289,376 L 289,378 L 288,379 L 288,385 L 287,386 L 287,388 L 286,389 L 286,392 L 285,393 L 285,397 L 284,398 L 284,401 L 283,402 L 283,404 L 282,405 L 282,410 L 281,411 L 281,414 L 280,415 L 280,417 L 279,418 L 279,421 L 278,422 L 278,427 L 277,428 L 277,431 L 276,432 L 276,434 L 275,435 L 275,441 L 274,442 L 274,444 L 273,445 L 273,447 L 272,448 L 272,454 L 271,455 L 271,457 L 270,458 L 270,460 L 269,461 L 269,466 L 268,467 L 268,470 L 267,471 L 267,473 L 266,474 L 266,480 L 265,481 L 265,483 L 264,484 L 264,487 L 263,488 L 263,493 L 262,494 L 262,497 L 261,498 L 261,500 L 260,501 L 260,506 L 259,507 L 259,509 L 258,510 L 258,513 L 257,514 L 257,519 L 256,520 L 256,522 L 255,523 L 255,526 L 254,527 L 254,532 L 253,533 L 253,536 L 252,537 L 252,539 L 251,540 L 251,545 L 250,546 L 250,549 L 249,550 L 249,552 L 248,553 L 248,556 L 247,557 L 247,562 L 246,563 L 246,565 L 245,566 L 245,568 L 680,568 L 675,568 L 674,567 L 671,567 L 670,566 L 663,566 L 662,565 L 659,565 L 658,564 L 656,564 L 655,563 L 650,563 L 649,562 L 648,562 L 647,561 L 645,561 L 644,560 L 641,560 L 640,559 L 639,559 L 638,558 L 637,558 L 636,557 L 633,557 L 632,556 L 631,556 L 630,555 L 629,555 L 628,554 L 626,554 L 625,553 L 624,553 L 623,552 L 622,552 L 621,551 L 620,551 L 618,549 L 617,549 L 616,548 L 615,548 L 614,547 L 613,547 L 611,545 L 610,545 L 609,544 L 608,544 L 605,541 L 603,541 L 602,540 L 602,539 L 601,538 L 600,538 L 598,536 L 597,536 L 592,531 L 591,531 L 590,530 L 590,529 L 589,529 L 587,527 L 587,526 L 586,526 L 584,524 L 584,523 L 579,518 L 579,517 L 576,514 L 576,513 L 574,511 L 574,510 L 571,507 L 571,506 L 570,505 L 570,504 L 568,502 L 568,501 L 567,500 L 567,499 L 566,498 L 566,497 L 565,496 L 565,495 L 564,494 L 564,492 L 562,490 L 562,487 L 561,486 L 561,485 L 560,484 L 560,483 L 559,482 L 559,479 L 558,478 L 558,476 L 557,475 L 557,473 L 556,472 L 556,467 L 555,466 L 555,463 L 554,462 L 554,459 L 553,458 L 553,446 L 552,445 L 552,412 L 553,411 L 553,398 L 554,397 L 554,393 L 555,392 L 555,387 L 556,386 L 556,379 L 557,378 L 557,375 L 558,374 L 558,372 L 559,371 L 559,365 L 560,364 L 560,362 L 561,361 L 561,359 L 562,358 L 562,352 L 563,351 L 563,349 L 564,348 L 564,346 L 565,345 L 565,339 L 566,338 L 566,336 L 567,335 L 567,333 L 568,332 L 568,326 L 569,325 L 569,323 L 570,322 L 570,319 L 571,318 L 571,313 L 572,312 L 572,310 L 573,309 L 573,306 L 574,305 L 574,301 L 575,300 L 575,297 L 576,296 L 576,294 L 577,293 L 577,291 L 578,290 L 578,284 L 579,283 L 579,281 L 580,280 L 580,277 L 581,276 L 581,271 L 582,270 L 582,268 L 583,267 L 583,264 L 584,263 L 584,258 L 585,257 L 585,254 L 586,253 L 586,251 L 587,250 L 587,245 L 588,244 L 588,241 L 589,240 L 589,238 L 590,237 L 590,232 L 591,231 L 591,229 L 592,228 L 592,226 L 593,225 L 593,219 L 594,218 L 594,216 L 595,215 L 595,212 L 596,211 L 596,206 L 597,205 L 597,203 L 598,202 L 598,199 L 599,198 L 599,193 L 600,192 L 600,189 L 601,188 L 601,186 L 602,185 L 602,180 L 603,179 L 603,176 L 604,175 L 604,173 L 605,172 L 605,167 L 606,166 L 606,164 L 607,163 L 607,161 L 608,160 L 608,155 L 609,154 L 609,151 L 610,150 L 610,147 L 611,146 L 611,144 L 612,143 L 612,137 L 613,136 L 613,134 L 614,133 L 614,131 L 615,130 L 615,124 L 616,123 L 616,121 L 617,120 L 617,118 L 618,117 L 618,112 L 619,111 L 619,108 L 620,107 L 620,105 L 621,104 L 621,99 L 622,98 L 622,96 L 623,95 L 623,92 L 624,91 L 624,86 L 625,85 L 625,82 L 626,81 L 626,79 L 627,78 L 627,72 L 628,71 L 628,69 L 629,68 L 629,66 L 630,65 L 630,60 L 631,59 L 631,56 L 632,55 L 632,53 L 633,52 L 633,47 L 634,46 L 634,43 L 635,42 L 635,40 L 636,39 L 636,34 L 637,33 L 637,31 L 638,30 L 638,27 L 639,26 L 639,21 L 640,20 L 640,17 L 641,16 L 641,14 L 642,13 L 642,9 L 643,8 L 643,4 L 644,3 L 644,1 L 645,0 Z M 0,0 L 0,121 L 0,119 L 1,118 L 1,116 L 2,115 L 2,109 L 3,108 L 3,106 L 4,105 L 4,103 L 5,102 L 5,97 L 6,96 L 6,93 L 7,92 L 7,90 L 8,89 L 8,84 L 9,83 L 9,81 L 10,80 L 10,77 L 11,76 L 11,71 L 12,70 L 12,68 L 13,67 L 13,65 L 14,64 L 14,59 L 15,58 L 15,55 L 16,54 L 16,52 L 17,51 L 17,48 L 18,47 L 18,42 L 19,41 L 19,38 L 20,37 L 20,35 L 21,34 L 21,29 L 22,28 L 22,25 L 23,24 L 23,22 L 24,21 L 24,16 L 25,15 L 25,13 L 26,12 L 26,9 L 27,8 L 27,3 L 28,2 L 28,0 Z" fill="currentColor" transform="translate(0.0,184.875) scale(0.25)" /></svg>